<svg width="106" height="24" viewBox="0 0 106 24" fill="none" xmlns="http://www.w3.org/2000/svg">
<path d="M67.8844 7.73425C67.8176 8.1364 67.7511 8.53868 67.6823 8.953H67.277C67.3459 9.12268 67.3463 9.12268 67.4166 9.29578C67.5058 9.95734 67.2218 10.2221 66.8717 10.7811C66.7334 11.2541 66.598 11.7281 66.4664 12.203C66.3327 12.4041 66.1989 12.6052 66.0612 12.8124C65.8244 13.3429 65.6592 13.8137 65.5553 14.3866C65.5219 14.5374 65.4882 14.6883 65.4537 14.8436C65.2532 14.9441 65.2529 14.9443 65.0485 15.0468C64.9766 15.4522 64.909 15.8586 64.8453 16.2655C64.6301 16.7479 64.63 16.7479 64.4401 17.078H64.0358C64.1026 17.2791 64.169 17.4802 64.2379 17.6874C64.0391 18.0395 63.8386 18.3909 63.6266 18.7352C63.3531 19.2476 63.3029 19.7567 63.2252 20.328C63.0915 20.529 62.9577 20.7303 62.8199 20.9374C62.7531 21.0714 62.6857 21.2055 62.6168 21.3436C62.1315 22.3167 61.5888 22.9506 60.5914 23.3749C59.9364 23.5677 59.2952 23.6355 58.6158 23.6923C58.4164 23.7093 58.2168 23.7265 58.0114 23.744C57.86 23.7563 57.7083 23.7685 57.5524 23.7811C57.3249 23.3251 57.322 23.0672 57.3239 22.5624C57.3231 22.3488 57.3237 22.3487 57.3229 22.1307C57.3498 21.75 57.3498 21.7498 57.5524 21.3436C57.935 21.2953 57.9352 21.2952 58.4127 21.2802C59.1647 21.2129 59.3557 21.1556 59.983 20.6708C60.3651 20.1561 60.4987 19.9257 60.5914 19.3124C60.675 19.1239 60.7583 18.9352 60.8444 18.7411C61.0486 17.8707 60.7854 17.4533 60.3883 16.6718C60.2881 16.3703 60.2885 16.3701 60.1862 16.0624C60.0524 15.8613 59.9186 15.6602 59.7809 15.453C59.3751 14.5309 59.08 13.566 58.7672 12.6093C58.5967 12.0965 58.4038 11.6658 58.1598 11.1874C57.6146 10.0528 57.1471 9.01955 57.1471 7.73425H59.983C60.0415 7.9479 60.1005 8.1616 60.1608 8.38171C60.3994 9.19244 60.6936 9.94569 61.0338 10.7177C61.0881 10.8726 61.1429 11.0277 61.1989 11.1874C61.132 11.3214 61.0655 11.4556 60.9967 11.5936C61.1302 11.6605 61.2635 11.7278 61.401 11.7968V12.6093C61.5346 12.6762 61.6686 12.7434 61.8063 12.8124C61.9535 13.2143 62.0896 13.6208 62.2115 14.0311H62.8199C62.9339 13.5904 63.0308 13.1617 63.0983 12.7108C63.2406 12.1401 63.4841 11.8564 63.8326 11.3905C63.9654 10.8772 63.966 10.8771 64.0358 10.3749C64.1026 10.1739 64.1691 9.97261 64.2379 9.7655H64.6432C64.5429 9.46395 64.5424 9.46383 64.4401 9.15613C64.6173 8.76259 64.6174 8.76251 64.8453 8.34363C64.9122 8.07551 64.9796 7.80737 65.0485 7.53113C66.4522 7.63166 66.4524 7.6317 67.8844 7.73425ZM12.359 0.586792C12.6248 0.590916 12.6249 0.591374 12.8961 0.595581C13.3291 0.602698 13.7621 0.613172 14.1949 0.624878V1.03113C14.3788 1.08978 14.5631 1.14843 14.7526 1.20886C15.8018 1.57302 16.2683 1.81443 16.8541 2.78308C17.1435 3.27413 17.144 3.27413 17.4371 3.67175H17.8424C17.9427 3.97333 17.9423 3.97351 18.0446 4.28113C18.3062 4.92008 18.3063 4.92008 18.8551 5.29675C18.877 5.43579 18.8989 5.57538 18.9215 5.71863C19.1142 6.55957 19.5542 7.18174 20.0201 7.89929C20.1963 8.17561 20.3723 8.45207 20.5485 8.72839C20.8235 9.1575 21.0987 9.58668 21.3756 10.0145C21.5145 10.232 21.5152 10.2321 21.6569 10.454C21.7412 10.5849 21.8259 10.7156 21.9127 10.8505C22.0969 11.1871 22.0963 11.1875 22.0963 11.5936C22.23 11.6606 22.3639 11.7277 22.5016 11.7968C23.0074 13.8252 22.7131 15.8324 21.691 17.6493C21.4905 17.9697 21.4904 17.9698 21.2858 18.2968C21.1855 18.4894 21.0854 18.6822 20.9821 18.8807C20.6107 19.4081 20.4821 19.3957 19.8678 19.5155C19.6201 19.6542 19.3754 19.7986 19.1334 19.9471C18.9078 20.0728 18.6823 20.1985 18.4498 20.328C18.3161 20.261 18.1823 20.1939 18.0446 20.1249C18.1665 19.7145 18.3026 19.3081 18.4498 18.9061C18.5835 18.8391 18.7174 18.772 18.8551 18.703C18.7979 18.3726 18.7379 18.0425 18.6774 17.7128C18.6445 17.5291 18.6116 17.3454 18.5778 17.1561C18.4839 16.6386 18.4841 16.6382 18.0446 16.2655C17.9095 15.9947 17.7743 15.7238 17.6393 15.453C17.5056 15.319 17.3717 15.1848 17.234 15.0468C17.0927 14.7792 16.9564 14.5086 16.8287 14.2343C16.7749 14.3738 16.7211 14.5133 16.6656 14.6571C16.5941 14.8401 16.5226 15.0232 16.4489 15.2118C16.3783 15.3932 16.3076 15.5747 16.235 15.7616C16.0181 16.2654 16.0181 16.2655 15.6129 16.8749V17.2811C15.4543 17.3313 15.2958 17.3817 15.1324 17.4335C14.5122 17.7296 14.4812 17.9068 14.1949 18.4999C13.9263 18.5733 13.656 18.6415 13.3844 18.703C13.2841 19.0046 13.2845 19.0048 13.1823 19.3124C12.7644 19.452 12.7642 19.452 12.3717 19.5155V19.9218C12.1016 20.0572 11.8313 20.1926 11.5612 20.328C11.3732 20.4285 11.3731 20.4286 11.1813 20.5311C10.0379 21.0706 9.08 21.1952 7.8385 21.1659C7.68937 21.1641 7.54 21.1619 7.38635 21.16C7.02209 21.1553 6.65779 21.1483 6.29358 21.1405V20.7343C6.14535 20.7125 5.99707 20.6912 5.84436 20.6688C4.36052 20.3074 2.65784 18.9637 1.83655 17.6874C1.7697 17.4863 1.7023 17.2852 1.63342 17.078C1.55791 16.8932 1.55818 16.8926 1.48108 16.704C0.834611 15.0223 0.819339 13.1417 1.22815 11.3905C1.53205 11.035 1.53264 11.035 1.83655 10.7811C1.90339 10.5801 1.96983 10.3789 2.0387 10.1718C2.4439 9.56238 2.84931 8.953 3.25452 8.34363C3.35477 8.13632 3.35534 8.13623 3.45764 7.92468C3.6601 7.5314 3.65995 7.53103 4.06506 7.12488C4.13189 6.99088 4.19836 6.85669 4.26721 6.71863C4.67239 6.10929 4.67256 6.10917 5.05237 5.65222C5.62898 4.90409 6.07461 4.11187 6.4967 3.2655C6.59271 3.17343 6.6888 3.08107 6.78772 2.98621C7.12735 2.67564 7.12781 2.67538 7.25647 2.24988C7.6482 1.62176 8.26569 1.48438 8.92737 1.23425C9.23999 1.07558 9.24027 1.07582 9.5592 0.91394C10.4803 0.515484 11.3713 0.557421 12.359 0.586792ZM37.6969 7.73425H40.5338C40.6341 8.84023 40.6337 8.84039 40.736 9.96863H37.6969C37.7638 11.8455 37.8311 13.7224 37.9 15.6561C38.6834 16.0488 38.9435 16.1097 39.774 16.0878C40.25 16.0752 40.2502 16.0752 40.736 16.0624C40.6691 16.7997 40.6027 17.5371 40.5338 18.2968H39.9254C39.8586 18.4307 39.7921 18.5649 39.7233 18.703C39.3306 18.6798 38.9379 18.6539 38.5455 18.6268C38.3271 18.6127 38.1085 18.5984 37.8834 18.5839C37.2923 18.4998 37.2919 18.4998 36.6842 18.0936C36.5505 18.0266 36.4167 17.9596 36.2789 17.8905C35.3694 16.9786 35.0864 16.3133 35.0397 15.0184C35.0407 14.7858 35.0425 14.5531 35.0436 14.3134C35.0442 14.06 35.0449 13.8058 35.0455 13.5448C35.0481 13.1511 35.0478 13.1508 35.0504 12.7489C35.0518 12.3491 35.0519 12.349 35.0533 11.9413C35.0557 11.2839 35.0589 10.626 35.0631 9.96863H33.2399C33.3067 9.23133 33.3731 8.49389 33.442 7.73425H35.2662C35.2579 7.49549 35.2495 7.25662 35.2408 7.01062C35.2379 6.16536 35.4048 5.48665 35.6705 4.68738H37.6969V7.73425ZM83.485 15.0468C85.2814 15.2269 85.2819 15.2269 85.9166 15.6561C86.2973 16.469 86.3978 17.239 86.1315 18.0936C85.5334 18.6751 85.1203 18.6892 84.2955 18.703C83.7999 18.6046 83.3572 18.4636 82.8776 18.2968C82.6687 17.6327 82.682 17.1063 82.7633 16.4178C82.7839 16.2367 82.8046 16.0556 82.8258 15.869C82.8428 15.7318 82.8601 15.5944 82.8776 15.453C83.078 15.386 83.2785 15.3189 83.485 15.2499V15.0468ZM96.6539 8.1405C98.4497 7.61096 100.89 6.95247 102.606 8.03894C102.715 8.13945 102.823 8.24008 102.935 8.34363C103.069 8.41064 103.203 8.47771 103.34 8.54675C104.808 9.92584 105.14 11.2224 105.278 13.1805C105.295 13.4164 105.311 13.6524 105.329 13.8954C105.341 14.0742 105.353 14.2532 105.366 14.4374H104.961C104.969 14.5923 104.977 14.7474 104.986 14.9071C104.961 15.453 104.961 15.453 104.555 16.0624C104.455 16.2634 104.455 16.2636 104.353 16.4686C104.219 16.6027 104.086 16.7368 103.948 16.8749V17.2811C103.547 17.3817 103.547 17.3817 103.137 17.4843V17.8905C101.109 18.7532 99.3644 18.9871 97.2623 18.2968C96.8951 17.9921 96.8945 17.9921 96.6539 17.6874C96.4535 17.5534 96.2531 17.4192 96.0465 17.2811C95.7047 16.9765 95.7049 16.9763 95.4391 16.6718V16.2655C95.2385 16.1314 95.0373 15.9974 94.8307 15.8593C94.6788 15.4532 94.6792 15.4529 94.6285 15.0468C94.6954 14.9128 94.7618 14.7786 94.8307 14.6405C94.697 14.5735 94.5631 14.5064 94.4254 14.4374C94.4199 14.0185 94.416 13.5995 94.4127 13.1805C94.4104 12.9473 94.4083 12.7138 94.4059 12.4735C94.4497 10.9752 94.4498 10.9751 94.9323 10.451C95.0325 10.3589 95.1327 10.2667 95.236 10.1718C95.3028 9.97069 95.3702 9.76954 95.4391 9.56238C95.8435 9.22315 96.2482 8.88432 96.6539 8.54675V8.1405ZM52.6901 7.73425C53.2004 7.81393 53.2009 7.814 53.7916 7.83582C54.8734 7.89238 54.8738 7.89244 55.3239 8.34363C55.3492 8.97834 55.3492 8.97853 55.3239 9.56238C55.1233 9.62941 54.9221 9.69644 54.7155 9.7655C54.6486 9.96654 54.5822 10.1678 54.5133 10.3749C53.0085 10.1718 53.0081 10.1717 52.2848 9.96863V9.56238H51.6764C51.6096 9.69638 51.5431 9.83057 51.4742 9.96863C51.2041 10.104 50.9338 10.2395 50.6637 10.3749V10.9843C50.7974 11.0513 50.9312 11.1183 51.069 11.1874C51.2695 11.3214 51.4698 11.4556 51.6764 11.5936C52.0155 11.6779 52.3587 11.749 52.7028 11.8094C53.6648 11.9808 53.6651 11.9809 54.108 12.203C54.2292 12.2491 54.3504 12.2952 54.4752 12.3427C55.1521 12.7498 55.6188 13.0995 55.9313 13.828C56.0178 14.8512 55.9898 15.8508 55.9313 16.8749C55.7307 16.9754 55.7306 16.9754 55.526 17.078C55.4634 17.212 55.4011 17.3462 55.3365 17.4843C55.1213 17.8904 55.1208 17.8906 54.5133 18.0936C54.3854 18.1634 54.2574 18.2337 54.1256 18.3055C53.3799 18.6491 52.5991 18.5748 51.7906 18.576C51.6192 18.581 51.4477 18.5865 51.2711 18.5917C50.4222 18.5957 49.9791 18.5829 49.2545 18.1044C49.1178 17.9668 48.9813 17.8291 48.8405 17.6874C48.5748 17.5434 48.3059 17.4041 48.0299 17.2811C48.3273 15.9396 48.3274 15.9394 48.8278 15.5673C49.2454 15.4531 49.2455 15.453 49.8531 15.453C50.2583 15.8592 50.2581 15.8595 50.4606 16.2655C50.7614 16.165 50.762 16.165 51.069 16.0624C51.1358 16.1293 51.2023 16.1965 51.2711 16.2655C52.0878 16.3189 52.3974 16.3251 53.0944 15.8593C53.2948 15.7587 53.2953 15.7586 53.4996 15.6561C53.3659 15.254 53.2321 14.8517 53.0944 14.4374H52.6901V14.0311H51.069V13.6249C50.8873 13.694 50.887 13.6941 50.7018 13.7645C50.5555 13.7855 50.4091 13.8064 50.2584 13.828C49.9419 13.5488 49.9421 13.5486 49.651 13.2186C49.4504 13.1516 49.2493 13.0846 49.0426 13.0155C48.5712 12.6263 48.2819 12.3361 48.068 11.7587C48.0143 10.9512 48.0538 10.1503 48.2321 9.35925C49.2581 8.3306 50.146 7.53518 51.6256 7.40417C51.7875 7.38899 51.95 7.37392 52.1168 7.35828C52.3 7.34337 52.3 7.34322 52.4869 7.328C52.5538 7.46207 52.6212 7.59613 52.6901 7.73425ZM29.7448 7.50574C29.9819 7.5094 30.2192 7.51368 30.4635 7.51746C30.7345 7.52452 30.7348 7.52392 31.0114 7.53113V7.93738C31.4793 8.0044 31.9472 8.07145 32.4293 8.1405C32.4546 8.72445 32.4546 8.72461 32.4293 9.35925C32.2956 9.4933 32.1618 9.62739 32.024 9.7655C31.8827 10.0331 31.7465 10.3036 31.6188 10.578H30.8082V10.1718C29.7912 10.0231 28.9768 10.0498 28.1237 10.6669C27.3117 11.4214 27.205 12.1761 27.1617 13.243C27.148 13.8742 27.1536 14.5044 27.1617 15.1356C27.1601 15.4618 27.158 15.788 27.1549 16.1141C27.1489 16.9095 27.1525 17.7046 27.1617 18.4999H24.528V7.93738C24.9959 7.80334 25.4638 7.66923 25.9459 7.53113C26.0796 7.79922 26.2134 8.06742 26.3512 8.34363C26.9965 8.39996 26.9967 8.39996 27.567 7.93738C28.2942 7.47616 28.8942 7.48868 29.7448 7.50574ZM45.5983 7.73425C45.6651 11.2869 45.7325 14.8396 45.8014 18.4999C44.9323 18.4329 44.063 18.3658 43.1676 18.2968C43.1007 14.7441 43.0334 11.1914 42.9645 7.53113C43.8336 7.59815 44.7029 7.6652 45.5983 7.73425ZM75.3551 7.49597C76.196 7.48827 76.8653 7.52908 77.61 7.93738C77.7102 8.1384 77.7099 8.13864 77.8121 8.34363C77.9458 8.40645 78.0797 8.46933 78.2174 8.53406C78.6226 8.74985 78.6223 8.75013 78.8248 9.35925C78.9251 9.55404 78.9257 9.55414 79.028 9.75281C79.4854 10.6986 79.4597 11.6298 79.4528 12.663C79.4525 12.824 79.4521 12.9854 79.4518 13.1512C79.4507 13.6645 79.4485 14.1781 79.4459 14.6913C79.4449 15.0399 79.4438 15.3886 79.443 15.7372C79.4408 16.5904 79.4374 17.4436 79.4332 18.2968H77.0016V11.5936H76.5963C76.4626 11.1915 76.3288 10.7892 76.191 10.3749H75.5836V9.96863C75.2452 10.0252 75.2452 10.0252 74.9 10.0829C74.1656 10.1717 74.1655 10.1717 73.7604 9.96863C73.6935 10.1697 73.6261 10.3708 73.5573 10.578C73.2879 10.6477 73.018 10.7154 72.7477 10.7811C72.2538 11.5239 72.272 12.1003 72.2584 12.9608C72.2545 13.1132 72.2507 13.2657 72.2467 13.4227C72.2346 13.909 72.2248 14.3954 72.2155 14.8817C72.2077 15.2117 72.2001 15.542 72.192 15.8719C72.1726 16.6802 72.155 17.4884 72.1393 18.2968C70.8357 18.3973 70.8355 18.3973 69.5055 18.4999C69.5723 14.9473 69.6397 11.3945 69.7086 7.73425C71.3288 7.73425 71.329 7.73443 71.734 8.03894C71.8343 8.18976 71.8348 8.18976 71.9371 8.34363C72.4442 8.17414 72.8827 7.97923 73.3551 7.73425V7.53113C73.8743 7.52012 74.3935 7.51208 74.9127 7.50574C75.0587 7.50234 75.2047 7.49948 75.3551 7.49597ZM91.9948 18.2968H89.5631V7.73425H91.9948V18.2968ZM10.9537 6.92175C10.8493 7.05573 10.7449 7.18998 10.6373 7.328C10.3227 7.72954 10.3224 7.72973 10.1559 8.24207C9.90837 8.82594 9.5887 9.13262 9.13049 9.56238C9.06364 9.69642 8.99624 9.83052 8.92737 9.96863C8.79365 10.1697 8.65986 10.3708 8.52209 10.578C8.42601 10.7414 8.33008 10.9048 8.23108 11.0731C7.94578 11.5422 7.6393 11.9706 7.30627 12.4061C6.8939 12.9791 6.89414 12.9794 6.69885 13.536C6.49629 14.031 6.49637 14.0314 6.09143 14.4374C5.28152 15.4949 4.72974 16.3391 4.67249 17.6874C5.5198 17.6874 5.89424 17.207 6.4967 16.6718C7.14759 16.1306 7.79825 15.6853 8.52209 15.2499C8.86142 14.9813 9.19876 14.7101 9.53479 14.4374C9.89224 14.1781 10.2532 13.9236 10.6139 13.6688C10.8919 13.4668 11.1593 13.2493 11.4225 13.0282C12.513 12.1891 13.6255 11.3924 15.0055 11.1874C14.6602 10.2067 14.1357 9.40483 13.5055 8.58289C12.9848 7.87191 12.5365 7.11526 12.0729 6.36609C11.9711 6.21429 11.8692 6.06253 11.7643 5.90613H11.5612C11.3559 6.24294 11.154 6.58192 10.9537 6.92175ZM98.6803 10.3749C98.4985 10.3937 98.4985 10.3937 98.3131 10.413C97.7173 10.6348 97.5024 11.0065 97.2135 11.5585C96.8907 12.486 96.8636 13.5508 97.236 14.4647C97.6992 15.2329 98.2361 15.7785 99.0856 16.0624C99.2193 15.9954 99.3531 15.9283 99.4908 15.8593V16.2655C100.622 16.2251 100.623 16.2251 101.517 15.6561C101.717 15.4742 101.717 15.4736 101.922 15.288C102.666 14.4712 102.816 13.7123 102.783 12.6073C102.666 11.6719 102.27 11.1137 101.58 10.5018C101.425 10.393 101.271 10.2839 101.112 10.1718C100.911 10.2722 100.911 10.2725 100.707 10.3749V9.96863H98.8824C98.8156 10.1026 98.7492 10.2368 98.6803 10.3749ZM62.6168 15.0468V14.4374H62.2115C62.4121 14.7389 62.4123 14.7392 62.6168 15.0468ZM42.8004 3.2782C43.5192 2.45836 44.3583 2.63612 45.3961 2.65613C45.4629 2.79013 45.5294 2.92432 45.5983 3.06238C45.7988 3.36397 45.799 3.36418 46.0035 3.67175C46.0557 4.21904 46.0216 4.74541 46.0035 5.29675C45.3474 5.65097 44.7024 5.92769 43.9781 6.10925C43.5224 5.94424 43.522 5.9441 43.1676 5.703C43.0339 5.636 42.9 5.56891 42.7623 5.49988C42.463 4.11484 42.4631 4.11476 42.8004 3.2782ZM91.7916 2.65613C92.1966 3.46826 92.3528 3.9915 92.4 4.8905C92.1468 5.47449 92.1462 5.47449 91.7916 5.90613C91.1238 6.12931 90.899 6.08309 90.234 5.91882C90.0704 5.87931 89.9065 5.83942 89.7379 5.79871C89.6135 5.76707 89.4891 5.73559 89.361 5.703C89.3215 5.37312 89.2836 5.04295 89.2467 4.71277C89.2256 4.52906 89.204 4.3454 89.1823 4.15613C89.1577 3.67212 89.1584 3.67175 89.361 3.2655C89.4946 3.13152 89.6285 2.99729 89.7662 2.85925V2.65613H91.7916Z" fill="white"/>
</svg>
