<svg id="svg" version="1.1" xmlns="http://www.w3.org/2000/svg" xmlns:xlink="http://www.w3.org/1999/xlink" width="400" height="95.2" viewBox="0, 0, 400,95.2"><g id="svgg"><path id="path0" d="M45.667 5.113 C 39.411 5.785,34.641 7.970,30.883 11.882 C 30.260 12.531,29.559 13.254,29.325 13.489 C 28.782 14.034,26.500 17.236,26.500 17.452 C 26.500 17.542,26.354 17.748,26.175 17.910 C 25.996 18.072,25.534 18.739,25.148 19.394 C 24.545 20.417,22.865 23.015,20.401 26.733 C 20.043 27.273,19.607 27.948,19.433 28.233 C 19.259 28.517,18.678 29.438,18.141 30.278 C 17.605 31.119,17.167 31.851,17.167 31.906 C 17.167 32.001,16.627 32.826,14.569 35.877 C 14.027 36.680,13.438 37.580,13.261 37.877 C 12.889 38.499,11.065 41.320,10.163 42.667 C 9.825 43.171,9.497 43.797,9.434 44.057 C 9.371 44.318,8.979 45.244,8.564 46.115 C 6.847 49.716,6.203 55.451,7.078 59.333 C 7.777 62.429,8.041 63.320,8.563 64.333 C 8.869 64.929,9.214 65.717,9.329 66.083 C 10.264 69.062,15.783 74.968,20.333 77.859 C 25.818 81.345,34.040 82.799,39.083 81.176 C 42.821 79.973,43.532 79.634,46.087 77.833 C 46.673 77.421,47.624 76.750,48.201 76.343 C 48.778 75.936,49.587 75.313,50.000 74.959 C 50.670 74.383,51.701 73.573,54.509 71.417 C 54.987 71.050,55.724 70.460,56.147 70.105 C 56.570 69.751,57.290 69.151,57.747 68.772 C 61.493 65.666,63.357 62.968,64.499 59.000 C 65.196 56.579,65.322 56.258,65.445 56.600 C 65.587 56.995,67.001 59.107,68.833 61.663 C 72.392 66.628,72.957 69.000,71.529 73.000 C 71.260 73.756,70.274 75.615,69.988 75.908 C 69.454 76.455,69.927 77.895,70.728 78.160 C 71.321 78.355,71.427 78.330,73.434 77.527 C 76.519 76.292,81.229 72.181,82.991 69.184 C 83.282 68.690,83.701 68.048,83.922 67.758 C 84.503 66.996,85.761 64.043,86.410 61.917 C 88.499 55.074,87.567 48.223,83.721 42.167 C 82.964 40.973,82.110 39.535,81.299 38.083 C 80.940 37.442,80.509 36.767,80.342 36.583 C 80.174 36.400,79.839 35.856,79.598 35.374 C 79.357 34.892,78.662 33.729,78.054 32.790 C 77.445 31.851,76.355 30.108,75.630 28.917 C 74.906 27.725,74.162 26.525,73.978 26.250 C 73.374 25.348,70.594 20.877,70.125 20.054 C 69.873 19.612,69.296 18.688,68.844 18.000 C 68.391 17.313,67.764 16.315,67.452 15.784 C 66.383 13.968,63.782 10.991,62.500 10.117 C 62.087 9.836,61.475 9.375,61.140 9.091 C 59.504 7.711,55.160 5.942,52.167 5.436 C 50.624 5.175,46.837 4.987,45.667 5.113 M165.134 13.163 C 161.856 13.750,159.560 17.145,160.127 20.565 C 161.361 28.011,172.215 27.480,172.785 19.947 C 173.097 15.810,169.275 12.421,165.134 13.163 M335.500 13.226 C 331.056 14.242,329.000 19.776,331.753 23.309 C 336.638 29.580,346.159 23.475,342.531 16.397 C 341.317 14.028,338.180 12.613,335.500 13.226 M166.794 13.615 C 166.634 13.656,166.334 13.658,166.127 13.618 C 165.920 13.578,166.050 13.544,166.417 13.542 C 166.783 13.540,166.953 13.573,166.794 13.615 M337.127 13.615 C 336.968 13.656,336.668 13.658,336.460 13.618 C 336.253 13.578,336.383 13.544,336.750 13.542 C 337.117 13.540,337.286 13.573,337.127 13.615 M338.806 13.813 C 338.952 13.906,338.853 13.947,338.514 13.935 C 338.232 13.925,338.001 13.860,338.000 13.792 C 338.000 13.624,338.529 13.637,338.806 13.813 M333.387 14.875 C 333.315 14.990,333.254 15.158,333.253 15.250 C 333.251 15.342,333.137 15.417,333.000 15.417 C 332.862 15.417,332.750 15.529,332.750 15.667 C 332.750 15.804,332.637 15.920,332.500 15.924 C 332.362 15.928,332.271 16.028,332.296 16.145 C 332.322 16.265,332.260 16.308,332.155 16.243 C 332.037 16.170,332.231 15.861,332.686 15.397 C 333.412 14.657,333.628 14.497,333.387 14.875 M170.760 15.542 L 171.250 16.083 170.708 15.594 C 170.410 15.325,170.167 15.081,170.167 15.052 C 170.167 14.923,170.304 15.037,170.760 15.542 M161.823 15.958 C 161.148 16.729,161.110 16.765,161.250 16.500 C 161.415 16.189,162.029 15.500,162.141 15.500 C 162.187 15.500,162.044 15.706,161.823 15.958 M331.172 19.062 C 331.054 19.179,331.003 19.053,331.011 18.658 C 331.020 18.118,331.031 18.108,331.182 18.487 C 331.289 18.754,331.285 18.948,331.172 19.062 M160.833 19.407 C 160.833 19.814,160.777 20.182,160.708 20.224 C 160.640 20.267,160.583 19.934,160.583 19.484 C 160.583 19.035,160.640 18.667,160.708 18.667 C 160.777 18.667,160.833 19.000,160.833 19.407 M331.331 20.208 C 331.325 20.684,331.005 20.928,331.003 20.458 C 331.001 20.206,331.075 20.000,331.167 20.000 C 331.258 20.000,331.332 20.094,331.331 20.208 M135.059 20.281 C 134.109 20.470,134.082 20.581,133.089 28.583 C 132.964 29.592,132.809 30.655,132.746 30.945 L 132.630 31.474 129.569 31.529 C 125.426 31.603,125.750 31.222,125.750 36.019 C 125.750 40.699,125.445 40.333,129.352 40.333 L 132.167 40.333 132.171 49.042 C 132.177 61.205,132.436 63.043,134.608 66.333 C 137.612 70.886,142.602 72.577,150.105 71.586 C 153.383 71.152,153.267 71.348,153.019 66.667 L 152.838 63.250 152.333 62.792 L 151.828 62.333 148.808 62.333 C 145.426 62.333,144.813 62.216,143.843 61.386 C 142.494 60.232,142.500 60.282,142.500 49.660 L 142.500 40.333 147.315 40.333 C 153.552 40.333,152.917 40.822,152.917 36.019 C 152.917 31.101,153.534 31.598,147.336 31.532 L 142.514 31.481 142.465 26.341 C 142.410 20.520,142.427 20.591,141.106 20.432 C 140.116 20.312,135.483 20.197,135.059 20.281 M136.875 20.787 C 136.577 20.824,136.090 20.824,135.792 20.787 C 135.494 20.750,135.737 20.720,136.333 20.720 C 136.929 20.720,137.173 20.750,136.875 20.787 M135.266 21.026 C 135.337 21.141,135.312 21.173,135.204 21.106 C 135.104 21.045,134.905 21.162,134.761 21.368 C 134.467 21.788,134.409 21.648,134.673 21.156 C 134.868 20.791,135.091 20.742,135.266 21.026 M141.961 26.677 L 141.916 31.750 141.833 26.550 C 141.787 23.690,141.807 21.407,141.877 21.477 C 141.948 21.548,141.985 23.888,141.961 26.677 M171.062 23.259 C 170.741 23.749,170.583 23.801,170.833 23.333 C 170.931 23.150,170.967 23.000,170.913 23.000 C 170.858 23.000,170.861 22.924,170.918 22.831 C 170.976 22.737,171.092 22.704,171.176 22.756 C 171.261 22.808,171.210 23.033,171.062 23.259 M341.833 22.883 C 341.833 22.910,341.546 23.213,341.194 23.556 C 340.794 23.947,340.556 24.087,340.556 23.931 C 340.556 23.794,340.610 23.715,340.676 23.755 C 340.854 23.866,341.184 23.408,341.040 23.250 C 340.972 23.175,341.002 23.162,341.106 23.221 C 341.210 23.281,341.388 23.218,341.502 23.081 C 341.693 22.851,341.833 22.767,341.833 22.883 M134.285 23.873 C 134.245 24.080,134.211 23.950,134.209 23.583 C 134.207 23.217,134.239 23.047,134.281 23.206 C 134.323 23.366,134.324 23.666,134.285 23.873 M166.794 25.448 C 166.634 25.490,166.334 25.491,166.127 25.451 C 165.920 25.411,166.050 25.377,166.417 25.375 C 166.783 25.374,166.953 25.406,166.794 25.448 M337.377 25.451 C 337.172 25.490,336.797 25.491,336.544 25.453 C 336.291 25.415,336.458 25.382,336.917 25.381 C 337.375 25.380,337.582 25.411,337.377 25.451 M47.368 27.625 C 47.775 28.244,48.320 29.087,48.580 29.500 C 48.839 29.912,49.152 30.310,49.275 30.383 C 49.399 30.457,49.623 30.757,49.772 31.050 C 50.010 31.515,52.795 35.938,54.500 38.558 C 54.821 39.051,55.383 39.923,55.750 40.497 C 56.117 41.070,56.692 41.961,57.029 42.477 C 57.751 43.580,57.799 43.470,56.505 43.679 C 55.508 43.839,53.641 44.638,53.417 44.999 C 53.359 45.094,52.997 45.330,52.614 45.524 C 52.230 45.719,51.467 46.232,50.917 46.665 C 50.367 47.098,49.729 47.550,49.500 47.670 C 49.271 47.790,48.383 48.419,47.528 49.069 C 46.673 49.719,45.285 50.726,44.445 51.308 C 43.604 51.889,42.712 52.558,42.462 52.794 C 42.212 53.029,41.750 53.378,41.436 53.569 C 41.121 53.760,40.277 54.367,39.560 54.917 C 38.843 55.467,37.342 56.554,36.224 57.333 C 35.106 58.112,33.168 59.500,31.917 60.417 C 30.666 61.333,29.234 62.351,28.736 62.679 C 28.237 63.007,27.624 63.470,27.373 63.708 C 27.122 63.946,26.568 64.390,26.142 64.695 C 25.422 65.211,24.903 65.613,22.757 67.320 C 21.793 68.086,21.667 68.061,21.667 67.103 C 21.667 65.806,22.937 62.724,24.458 60.333 C 24.837 59.737,25.481 58.724,25.889 58.081 C 26.297 57.437,26.792 56.603,26.989 56.226 C 27.185 55.849,27.501 55.400,27.691 55.228 C 27.881 55.057,28.214 54.566,28.431 54.138 C 28.648 53.710,29.514 52.285,30.355 50.971 C 31.679 48.903,32.314 47.942,34.083 45.321 C 34.267 45.050,34.808 44.210,35.286 43.455 C 35.765 42.701,36.464 41.633,36.839 41.083 C 37.490 40.131,40.271 35.882,41.640 33.750 C 42.753 32.015,43.759 30.443,44.263 29.650 C 46.567 26.025,46.390 26.141,47.368 27.625 M133.865 27.417 C 133.902 27.738,133.873 28.000,133.800 28.000 C 133.727 28.000,133.667 27.738,133.667 27.417 C 133.667 27.096,133.696 26.833,133.732 26.833 C 133.768 26.833,133.828 27.096,133.865 27.417 M109.560 31.067 C 106.661 31.623,104.379 32.811,102.212 34.893 C 101.733 35.354,101.311 35.697,101.274 35.657 C 101.236 35.616,100.819 34.825,100.347 33.899 C 99.120 31.490,99.037 31.430,96.870 31.359 C 94.747 31.290,93.950 31.481,93.684 32.126 C 93.546 32.460,93.507 37.719,93.539 51.640 L 93.583 70.696 93.977 71.015 C 94.580 71.503,102.586 71.504,103.190 71.015 L 103.583 70.696 103.667 58.723 C 103.760 45.472,103.687 46.327,104.878 44.466 C 107.502 40.369,113.237 39.301,117.199 42.171 C 118.604 43.189,119.026 42.899,121.326 39.333 C 123.952 35.263,123.945 35.298,122.415 34.122 C 119.247 31.686,113.481 30.316,109.560 31.067 M191.583 31.006 C 184.700 32.082,180.204 36.917,180.273 43.167 C 180.343 49.438,183.740 52.635,192.667 54.831 C 198.468 56.258,199.659 57.091,199.459 59.581 C 199.111 63.914,191.695 64.575,186.917 60.699 C 184.984 59.131,184.674 59.145,183.239 60.867 C 182.695 61.520,181.874 62.474,181.414 62.986 C 179.489 65.130,179.352 65.742,180.525 66.950 C 181.361 67.809,184.201 69.740,185.124 70.074 C 185.468 70.199,186.096 70.458,186.520 70.649 C 189.859 72.155,195.392 72.566,199.289 71.597 C 208.025 69.425,212.309 60.928,208.409 53.508 C 206.476 49.830,203.579 48.244,195.138 46.247 C 193.701 45.907,192.304 45.494,192.032 45.329 C 190.095 44.150,190.065 41.578,191.973 40.252 L 192.696 39.750 195.056 39.761 C 197.758 39.773,198.936 40.086,201.022 41.347 C 202.927 42.498,203.528 42.059,207.305 36.750 C 209.344 33.884,198.506 29.924,191.583 31.006 M275.917 31.069 C 272.962 31.649,269.527 33.421,267.846 35.231 C 267.202 35.925,267.177 35.910,266.259 34.250 C 264.625 31.297,264.677 31.333,262.050 31.333 C 260.251 31.333,259.480 31.543,259.270 32.091 C 259.213 32.239,259.167 40.974,259.167 51.502 L 259.167 70.642 259.606 70.988 C 260.285 71.522,268.049 71.522,268.728 70.988 L 269.167 70.642 269.167 58.504 L 269.167 46.365 269.542 45.646 C 272.681 39.633,281.888 38.829,284.664 44.327 C 285.750 46.479,285.719 46.086,285.792 58.956 L 285.859 70.663 286.285 70.998 C 286.687 71.314,286.955 71.333,290.947 71.333 L 295.182 71.333 295.607 70.908 L 296.032 70.484 295.957 57.950 L 295.883 45.417 295.442 43.701 C 294.252 39.066,290.810 34.210,288.000 33.202 C 287.862 33.153,287.563 32.987,287.333 32.834 C 285.086 31.330,279.214 30.422,275.917 31.069 M367.750 30.937 C 360.554 32.031,355.517 35.502,352.519 41.433 C 351.797 42.860,351.473 43.731,350.659 46.418 C 349.831 49.154,350.136 55.262,351.267 58.611 C 355.825 72.108,372.807 76.619,383.683 67.223 C 390.969 60.929,392.652 48.503,387.347 40.167 C 386.968 39.571,386.528 38.878,386.370 38.626 C 383.268 33.684,374.231 29.952,367.750 30.937 M112.958 31.456 C 112.523 31.490,111.810 31.490,111.375 31.456 C 110.940 31.422,111.296 31.393,112.167 31.393 C 113.037 31.393,113.394 31.422,112.958 31.456 M195.214 31.456 C 194.737 31.490,193.912 31.490,193.381 31.457 C 192.851 31.424,193.242 31.396,194.250 31.396 C 195.258 31.395,195.692 31.422,195.214 31.456 M279.965 31.456 C 279.441 31.489,278.541 31.490,277.965 31.457 C 277.388 31.424,277.817 31.397,278.917 31.397 C 280.017 31.397,280.488 31.423,279.965 31.456 M371.382 31.457 C 370.813 31.489,369.838 31.489,369.215 31.457 C 368.593 31.425,369.058 31.398,370.250 31.398 C 371.442 31.398,371.951 31.424,371.382 31.457 M109.958 31.615 C 109.798 31.657,109.535 31.657,109.375 31.615 C 109.215 31.573,109.346 31.539,109.667 31.539 C 109.987 31.539,110.119 31.573,109.958 31.615 M162.226 31.610 C 161.181 31.830,161.255 30.412,161.206 51.362 L 161.162 70.355 161.660 70.852 L 162.157 71.349 166.489 71.300 C 170.386 71.255,170.852 71.220,171.119 70.952 C 171.401 70.671,171.419 69.630,171.460 51.589 L 171.504 32.523 171.100 32.053 L 170.696 31.583 166.640 31.559 C 164.409 31.546,162.422 31.569,162.226 31.610 M198.127 31.615 C 197.968 31.656,197.668 31.658,197.460 31.618 C 197.253 31.578,197.383 31.544,197.750 31.542 C 198.117 31.540,198.286 31.573,198.127 31.615 M213.542 31.748 C 212.861 32.044,212.763 32.796,213.248 34.000 C 213.939 35.716,215.917 40.686,216.166 41.333 C 216.325 41.746,216.924 43.246,217.497 44.667 C 218.070 46.087,218.670 47.587,218.831 48.000 C 218.991 48.413,219.591 49.913,220.164 51.333 C 220.737 52.754,221.338 54.254,221.499 54.667 C 221.660 55.079,222.168 56.354,222.627 57.500 C 223.087 58.646,223.996 60.933,224.648 62.583 C 225.301 64.233,225.941 65.808,226.071 66.083 C 226.554 67.104,227.667 70.073,227.667 70.340 C 227.667 70.493,227.324 71.435,226.904 72.434 C 226.485 73.433,225.799 75.112,225.379 76.167 C 223.635 80.548,222.551 81.317,217.880 81.486 C 214.295 81.615,214.725 80.973,214.153 87.053 C 213.848 90.298,214.130 90.500,219.000 90.534 C 224.061 90.570,227.227 89.414,230.118 86.474 C 232.754 83.794,232.986 83.322,238.918 68.514 C 241.510 62.044,244.659 54.200,245.916 51.083 C 253.553 32.142,253.257 32.926,253.008 32.271 C 252.741 31.568,252.004 31.470,247.475 31.529 C 242.882 31.590,242.877 31.591,242.485 32.812 C 242.377 33.144,242.239 33.492,242.176 33.583 C 242.114 33.675,241.863 34.275,241.618 34.917 C 241.134 36.190,239.213 41.145,238.578 42.760 C 238.360 43.315,237.725 44.965,237.168 46.427 C 236.610 47.888,236.053 49.308,235.930 49.583 C 235.807 49.858,235.612 50.383,235.498 50.750 C 235.384 51.117,235.238 51.492,235.174 51.583 C 235.110 51.675,234.613 52.931,234.071 54.375 C 233.528 55.819,233.042 57.000,232.991 57.000 C 232.887 57.000,232.017 54.858,230.319 50.417 C 229.933 49.408,229.372 47.983,229.072 47.250 C 228.772 46.517,228.473 45.692,228.407 45.417 C 228.342 45.142,228.192 44.729,228.075 44.500 C 227.882 44.124,227.327 42.729,226.747 41.167 C 226.628 40.846,226.340 40.096,226.108 39.500 C 225.876 38.904,225.374 37.592,224.993 36.583 C 223.323 32.169,223.204 31.937,222.464 31.679 C 221.651 31.396,214.220 31.454,213.542 31.748 M332.642 31.683 C 331.808 31.999,331.825 31.534,331.872 51.723 L 331.917 70.696 332.310 71.015 C 332.914 71.504,340.920 71.504,341.523 71.015 L 341.917 70.696 341.960 51.610 L 342.004 32.523 341.600 32.053 L 341.196 31.583 337.140 31.549 C 334.741 31.529,332.903 31.584,332.642 31.683 M367.292 31.615 C 367.131 31.657,366.869 31.657,366.708 31.615 C 366.548 31.573,366.679 31.539,367.000 31.539 C 367.321 31.539,367.452 31.573,367.292 31.615 M373.792 31.615 C 373.631 31.657,373.369 31.657,373.208 31.615 C 373.048 31.573,373.179 31.539,373.500 31.539 C 373.821 31.539,373.952 31.573,373.792 31.615 M97.375 31.956 C 96.894 31.990,96.106 31.990,95.625 31.956 C 95.144 31.923,95.537 31.895,96.500 31.895 C 97.462 31.895,97.856 31.923,97.375 31.956 M263.042 31.956 C 262.560 31.990,261.773 31.990,261.292 31.956 C 260.810 31.923,261.204 31.895,262.167 31.895 C 263.129 31.895,263.523 31.923,263.042 31.956 M131.367 32.124 C 130.514 32.155,129.164 32.154,128.367 32.124 C 127.569 32.093,128.267 32.069,129.917 32.069 C 131.567 32.069,132.219 32.094,131.367 32.124 M149.385 32.125 C 148.085 32.153,145.910 32.153,144.552 32.125 C 143.194 32.097,144.258 32.074,146.917 32.074 C 149.575 32.073,150.686 32.096,149.385 32.125 M168.468 32.124 C 167.396 32.153,165.596 32.153,164.468 32.125 C 163.340 32.096,164.217 32.072,166.417 32.072 C 168.617 32.072,169.540 32.095,168.468 32.124 M220.218 32.124 C 219.100 32.153,217.225 32.153,216.051 32.125 C 214.877 32.096,215.792 32.072,218.083 32.072 C 220.375 32.072,221.336 32.096,220.218 32.124 M250.051 32.124 C 248.934 32.153,247.059 32.153,245.885 32.125 C 244.711 32.096,245.625 32.072,247.917 32.072 C 250.208 32.072,251.169 32.096,250.051 32.124 M274.410 32.155 C 274.462 32.240,274.429 32.357,274.336 32.415 C 274.243 32.473,274.167 32.435,274.167 32.332 C 274.167 32.217,274.021 32.185,273.792 32.250 C 273.498 32.332,273.471 32.317,273.667 32.180 C 273.978 31.962,274.284 31.952,274.410 32.155 M338.968 32.124 C 337.896 32.153,336.096 32.153,334.968 32.125 C 333.840 32.096,334.717 32.072,336.917 32.072 C 339.117 32.072,340.040 32.095,338.968 32.124 M365.076 32.155 C 365.238 32.416,364.930 32.480,364.702 32.233 C 364.525 32.042,364.531 32.000,364.734 32.000 C 364.869 32.000,365.023 32.070,365.076 32.155 M341.500 32.770 C 341.500 32.897,341.427 33.000,341.339 33.000 C 341.250 33.000,341.221 32.884,341.276 32.743 C 341.330 32.602,341.309 32.498,341.229 32.513 C 340.934 32.567,340.817 32.495,340.922 32.325 C 341.059 32.103,341.500 32.443,341.500 32.770 M259.959 51.514 C 259.926 66.302,259.873 70.237,259.708 70.292 C 259.484 70.366,259.385 33.160,259.608 32.579 C 259.946 31.697,259.998 34.464,259.959 51.514 M126.368 35.930 C 126.331 38.557,126.367 39.332,126.519 39.238 C 126.646 39.160,126.674 39.186,126.598 39.310 C 126.270 39.841,126.167 39.054,126.167 36.018 C 126.167 33.291,126.220 32.502,126.403 32.500 C 126.410 32.500,126.395 34.044,126.368 35.930 M152.500 36.000 C 152.500 39.052,152.397 39.841,152.069 39.310 C 151.992 39.186,152.021 39.160,152.148 39.238 C 152.300 39.332,152.335 38.561,152.298 35.946 C 152.272 34.068,152.306 32.566,152.375 32.609 C 152.444 32.651,152.500 34.177,152.500 36.000 M161.917 51.417 C 161.917 61.821,161.860 70.333,161.792 70.333 C 161.637 70.333,161.623 32.765,161.778 32.611 C 161.839 32.550,161.895 32.500,161.903 32.500 C 161.910 32.500,161.917 41.012,161.917 51.417 M170.958 60.958 C 170.934 66.160,170.914 61.904,170.914 51.500 C 170.914 41.096,170.934 36.840,170.958 42.042 C 170.983 47.244,170.983 55.756,170.958 60.958 M259.747 51.417 C 259.747 61.775,259.767 65.988,259.792 60.779 C 259.816 55.570,259.816 47.095,259.792 41.946 C 259.767 36.796,259.747 41.058,259.747 51.417 M286.851 33.383 C 286.637 33.597,286.420 33.431,286.578 33.175 C 286.640 33.076,286.766 33.042,286.859 33.099 C 286.973 33.170,286.970 33.263,286.851 33.383 M103.054 34.875 C 102.981 34.990,102.921 35.158,102.919 35.250 C 102.918 35.342,102.804 35.420,102.667 35.424 C 102.529 35.428,102.433 35.515,102.453 35.617 C 102.473 35.718,102.385 35.888,102.258 35.993 C 101.816 36.360,102.078 35.694,102.582 35.168 C 103.086 34.642,103.277 34.523,103.054 34.875 M268.528 35.387 C 268.327 35.600,268.221 35.837,268.290 35.914 C 268.360 35.991,268.334 36.006,268.233 35.949 C 268.131 35.891,267.874 36.029,267.662 36.255 C 267.449 36.481,267.219 36.667,267.150 36.667 C 267.081 36.667,267.413 36.293,267.887 35.837 C 268.779 34.979,269.167 34.707,268.528 35.387 M207.118 35.941 C 207.054 36.189,207.035 36.175,207.019 35.865 C 207.007 35.620,206.930 35.523,206.808 35.599 C 206.684 35.676,206.661 35.645,206.743 35.511 C 206.925 35.217,207.218 35.553,207.118 35.941 M290.817 35.899 C 291.108 36.209,291.143 36.327,290.971 36.426 C 290.849 36.496,290.807 36.491,290.877 36.414 C 290.946 36.337,290.839 36.100,290.639 35.887 C 290.439 35.674,290.313 35.500,290.359 35.500 C 290.404 35.500,290.611 35.680,290.817 35.899 M383.427 36.206 C 383.746 36.556,383.779 36.629,383.524 36.414 C 383.308 36.232,383.090 36.121,383.040 36.167 C 382.990 36.212,382.929 36.119,382.906 35.958 C 382.849 35.575,382.858 35.579,383.427 36.206 M183.444 36.076 C 183.444 36.209,183.390 36.285,183.324 36.245 C 183.146 36.134,182.816 36.592,182.960 36.750 C 183.028 36.825,182.984 36.829,182.862 36.759 C 182.691 36.660,182.725 36.543,183.017 36.232 C 183.459 35.762,183.444 35.767,183.444 36.076 M101.689 36.390 C 101.586 36.513,101.547 36.658,101.601 36.712 C 101.655 36.766,101.538 36.769,101.341 36.717 L 100.982 36.623 101.366 36.411 C 101.876 36.130,101.906 36.128,101.689 36.390 M384.667 37.417 C 384.978 37.737,385.195 38.000,385.149 38.000 C 385.103 38.000,384.811 37.737,384.500 37.417 C 384.189 37.096,383.972 36.833,384.018 36.833 C 384.064 36.833,384.356 37.096,384.667 37.417 M206.176 37.482 C 205.925 37.952,205.548 38.212,205.419 38.004 C 205.358 37.906,205.408 37.846,205.529 37.871 C 205.651 37.896,205.729 37.817,205.704 37.696 C 205.679 37.575,205.735 37.523,205.829 37.581 C 205.985 37.677,206.075 37.453,206.016 37.113 C 206.002 37.037,206.069 37.023,206.163 37.081 C 206.274 37.150,206.279 37.290,206.176 37.482 M355.734 37.684 C 355.560 37.877,355.429 38.083,355.444 38.142 C 355.460 38.202,355.447 38.276,355.415 38.307 C 355.384 38.338,355.375 38.252,355.395 38.115 C 355.433 37.854,355.811 37.333,355.963 37.333 C 356.012 37.333,355.909 37.491,355.734 37.684 M385.885 39.052 C 385.753 39.265,385.442 38.892,385.412 38.483 C 385.387 38.136,385.393 38.137,385.680 38.518 C 385.842 38.732,385.934 38.972,385.885 39.052 M192.189 39.224 C 192.086 39.347,192.056 39.501,192.121 39.566 C 192.187 39.631,192.100 39.631,191.930 39.565 C 191.630 39.450,191.630 39.439,191.925 39.223 C 192.315 38.938,192.426 38.938,192.189 39.224 M195.713 39.122 C 195.327 39.157,194.652 39.157,194.213 39.123 C 193.775 39.088,194.092 39.060,194.917 39.059 C 195.742 39.059,196.100 39.087,195.713 39.122 M354.444 39.409 C 354.444 39.543,354.382 39.613,354.306 39.566 C 354.176 39.486,354.096 39.738,354.151 40.054 C 354.164 40.130,354.097 40.143,354.001 40.084 C 353.832 39.980,353.886 39.797,354.213 39.375 C 354.418 39.109,354.444 39.113,354.444 39.409 M111.167 40.102 C 111.167 40.138,110.942 40.167,110.667 40.167 C 110.392 40.167,110.167 40.105,110.167 40.029 C 110.167 39.953,110.392 39.924,110.667 39.964 C 110.942 40.005,111.167 40.067,111.167 40.102 M191.500 39.885 C 191.500 39.914,191.256 40.158,190.958 40.427 L 190.417 40.917 190.906 40.375 C 191.362 39.870,191.500 39.757,191.500 39.885 M279.167 40.042 C 279.167 40.110,278.642 40.167,278.000 40.167 C 277.358 40.167,276.833 40.110,276.833 40.042 C 276.833 39.973,277.358 39.917,278.000 39.917 C 278.642 39.917,279.167 39.973,279.167 40.042 M371.333 40.042 C 371.333 40.110,370.883 40.167,370.333 40.167 C 369.783 40.167,369.333 40.110,369.333 40.042 C 369.333 39.973,369.783 39.917,370.333 39.917 C 370.883 39.917,371.333 39.973,371.333 40.042 M113.460 40.115 C 113.301 40.156,113.001 40.158,112.794 40.118 C 112.586 40.078,112.717 40.044,113.083 40.042 C 113.450 40.040,113.620 40.073,113.460 40.115 M132.792 53.792 C 132.766 56.335,132.745 54.254,132.745 49.167 C 132.745 44.079,132.766 41.998,132.792 44.542 C 132.817 47.085,132.817 51.248,132.792 53.792 M200.821 40.235 C 200.970 40.415,200.969 40.499,200.816 40.594 C 200.679 40.678,200.659 40.647,200.752 40.497 C 200.848 40.342,200.814 40.305,200.638 40.372 C 200.490 40.429,200.389 40.374,200.389 40.234 C 200.389 39.935,200.572 39.935,200.821 40.235 M281.076 40.345 C 281.023 40.430,280.869 40.500,280.734 40.500 C 280.531 40.500,280.525 40.458,280.702 40.267 C 280.930 40.020,281.238 40.084,281.076 40.345 M181.266 40.359 C 181.340 40.478,181.312 40.506,181.192 40.433 C 181.066 40.354,180.993 40.473,180.981 40.782 C 180.968 41.082,180.933 41.142,180.883 40.949 C 180.743 40.407,181.026 39.971,181.266 40.359 M141.958 53.197 C 141.932 55.609,141.911 53.683,141.911 48.917 C 141.911 44.150,141.932 42.176,141.958 44.530 C 141.984 46.884,141.984 50.784,141.958 53.197 M108.243 40.655 C 108.366 40.855,108.053 41.052,107.831 40.915 C 107.644 40.800,107.767 40.500,108.000 40.500 C 108.081 40.500,108.190 40.570,108.243 40.655 M373.283 41.079 C 378.068 42.598,381.297 48.628,380.012 53.647 C 379.567 55.389,379.435 55.799,379.046 56.653 C 375.384 64.685,363.910 63.992,361.127 55.570 C 359.018 49.189,361.797 42.827,367.500 40.981 C 368.952 40.511,371.637 40.557,373.283 41.079 M180.785 42.540 C 180.745 42.747,180.711 42.617,180.709 42.250 C 180.707 41.883,180.739 41.714,180.781 41.873 C 180.823 42.032,180.824 42.332,180.785 42.540 M364.167 42.082 C 364.167 42.097,363.992 42.273,363.778 42.474 C 363.492 42.742,363.389 42.775,363.389 42.596 C 363.389 42.462,363.470 42.366,363.569 42.384 C 363.669 42.402,363.735 42.335,363.718 42.236 C 363.700 42.137,363.794 42.056,363.926 42.056 C 364.058 42.056,364.167 42.067,364.167 42.082 M378.167 43.618 C 378.167 43.743,378.017 43.611,377.326 42.875 L 376.583 42.083 377.375 42.826 C 377.810 43.235,378.167 43.591,378.167 43.618 M105.667 42.721 C 105.667 42.965,104.850 43.495,104.742 43.320 C 104.667 43.198,104.684 43.158,104.785 43.220 C 104.879 43.278,105.090 43.177,105.254 42.996 C 105.535 42.685,105.667 42.597,105.667 42.721 M180.839 43.792 C 180.770 44.486,180.753 44.515,180.701 44.026 C 180.650 43.531,180.737 43.000,180.871 43.000 C 180.897 43.000,180.883 43.356,180.839 43.792 M362.778 43.248 C 362.778 43.384,362.557 43.740,362.287 44.040 C 362.017 44.339,361.879 44.464,361.980 44.318 C 362.081 44.172,362.108 43.991,362.040 43.916 C 361.972 43.841,362.010 43.834,362.125 43.900 C 362.240 43.966,362.343 43.940,362.354 43.843 C 362.394 43.506,362.422 43.416,362.554 43.208 C 362.727 42.936,362.778 42.945,362.778 43.248 M270.444 43.414 C 270.444 43.550,270.253 43.831,270.019 44.039 C 269.785 44.247,269.694 44.285,269.817 44.125 C 269.940 43.965,269.983 43.833,269.911 43.833 C 269.840 43.833,269.917 43.683,270.083 43.500 C 270.444 43.101,270.444 43.101,270.444 43.414 M361.684 44.883 C 361.470 45.097,361.253 44.931,361.411 44.675 C 361.473 44.576,361.599 44.542,361.693 44.599 C 361.807 44.670,361.804 44.763,361.684 44.883 M295.209 46.024 C 295.116 46.117,295.092 45.961,295.147 45.630 C 295.224 45.167,295.247 45.144,295.300 45.478 C 295.334 45.694,295.293 45.940,295.209 46.024 M360.368 48.199 C 360.261 48.306,360.160 48.291,360.076 48.155 C 359.994 48.022,360.017 47.991,360.141 48.067 C 360.264 48.143,360.340 48.047,360.353 47.802 C 360.368 47.492,360.388 47.477,360.452 47.726 C 360.495 47.896,360.458 48.109,360.368 48.199 M286.503 59.917 L 286.587 49.583 286.585 59.903 C 286.584 68.009,286.539 70.237,286.375 70.292 C 286.209 70.347,286.175 68.023,286.207 58.972 L 286.247 47.583 286.333 58.917 L 286.419 70.250 286.503 59.917 M103.125 64.696 C 103.100 67.842,103.079 65.317,103.079 59.083 C 103.079 52.850,103.100 50.276,103.125 53.363 C 103.150 56.450,103.150 61.550,103.125 64.696 M389.782 48.792 C 389.740 48.952,389.705 48.821,389.705 48.500 C 389.705 48.179,389.740 48.048,389.782 48.208 C 389.823 48.369,389.823 48.631,389.782 48.792 M295.417 59.250 C 295.417 65.346,295.360 70.333,295.292 70.333 C 295.223 70.333,295.167 65.396,295.167 59.361 C 295.167 50.180,295.209 48.167,295.403 48.167 C 295.410 48.167,295.417 53.154,295.417 59.250 M182.918 49.137 C 182.785 49.271,183.191 49.671,183.356 49.569 C 183.440 49.517,183.488 49.571,183.462 49.688 C 183.437 49.806,183.529 49.905,183.667 49.909 C 183.804 49.913,183.920 50.029,183.924 50.167 C 183.928 50.304,184.041 50.392,184.174 50.361 C 184.308 50.331,184.360 50.362,184.291 50.431 C 184.222 50.500,184.290 50.694,184.442 50.861 C 185.082 51.569,184.494 51.086,183.528 50.111 C 182.915 49.493,182.589 49.056,182.741 49.056 C 182.883 49.056,182.963 49.092,182.918 49.137 M389.957 52.451 C 389.925 53.074,389.898 52.608,389.898 51.417 C 389.898 50.225,389.924 49.716,389.957 50.285 C 389.989 50.854,389.989 51.829,389.957 52.451 M350.884 52.517 C 350.810 52.591,350.787 52.111,350.831 51.451 L 350.913 50.250 350.965 51.316 C 350.994 51.903,350.957 52.443,350.884 52.517 M389.752 55.136 C 389.647 55.553,389.338 55.388,389.338 54.917 C 389.338 54.825,389.411 54.862,389.500 55.000 C 389.619 55.184,389.669 55.052,389.689 54.500 C 389.709 53.963,389.737 53.886,389.788 54.228 C 389.827 54.492,389.811 54.900,389.752 55.136 M197.019 55.380 C 196.948 55.452,196.708 55.438,196.487 55.351 C 196.108 55.201,196.116 55.193,196.616 55.221 C 196.909 55.237,197.091 55.309,197.019 55.380 M133.138 60.681 C 133.154 60.551,133.206 60.484,133.254 60.532 C 133.302 60.580,133.291 60.748,133.231 60.907 C 133.030 61.429,132.837 60.817,132.865 59.750 L 132.891 58.750 133.000 59.833 C 133.060 60.429,133.122 60.810,133.138 60.681 M311.333 59.046 C 306.209 60.841,305.069 67.764,309.375 70.934 C 315.030 75.097,322.636 69.043,319.682 62.730 C 318.283 59.740,314.331 57.996,311.333 59.046 M183.833 61.083 C 183.719 61.221,183.684 61.333,183.755 61.333 C 183.827 61.333,183.751 61.482,183.587 61.663 C 183.423 61.844,183.224 61.952,183.144 61.903 C 183.019 61.826,182.937 62.035,182.971 62.347 C 182.977 62.401,182.874 62.444,182.743 62.444 C 182.469 62.444,182.581 62.262,183.399 61.375 C 183.901 60.831,184.221 60.616,183.833 61.083 M308.907 61.375 C 308.639 61.673,308.362 61.988,308.293 62.075 C 308.223 62.162,308.167 62.183,308.167 62.122 C 308.167 61.978,309.172 60.833,309.298 60.833 C 309.352 60.833,309.176 61.077,308.907 61.375 M318.083 61.167 C 318.306 61.413,318.306 61.444,318.085 61.444 C 317.947 61.444,317.722 61.319,317.583 61.167 C 317.360 60.920,317.360 60.889,317.582 60.889 C 317.719 60.889,317.945 61.014,318.083 61.167 M373.790 62.282 C 373.628 62.324,373.538 62.427,373.590 62.511 C 373.642 62.594,373.561 62.616,373.411 62.558 C 373.090 62.435,373.404 62.160,373.833 62.189 C 374.009 62.200,373.995 62.228,373.790 62.282 M145.960 62.781 C 145.801 62.823,145.501 62.824,145.294 62.785 C 145.086 62.745,145.217 62.711,145.583 62.709 C 145.950 62.707,146.120 62.739,145.960 62.781 M182.600 62.875 C 182.666 62.990,182.659 63.028,182.584 62.960 C 182.397 62.791,181.977 63.162,182.111 63.378 C 182.170 63.473,182.140 63.503,182.045 63.444 C 181.864 63.333,181.441 63.718,181.585 63.863 C 181.630 63.908,181.551 63.944,181.410 63.944 C 181.243 63.944,181.371 63.722,181.777 63.306 C 182.489 62.576,182.442 62.601,182.600 62.875 M189.639 62.813 C 189.817 62.925,189.807 62.975,189.589 63.058 C 189.408 63.128,189.356 63.098,189.435 62.970 C 189.516 62.840,189.461 62.812,189.269 62.886 C 189.099 62.952,189.024 62.929,189.085 62.831 C 189.208 62.632,189.346 62.627,189.639 62.813 M369.875 62.787 C 369.577 62.824,369.090 62.824,368.792 62.787 C 368.494 62.750,368.738 62.720,369.333 62.720 C 369.929 62.720,370.173 62.750,369.875 62.787 M371.792 62.786 C 371.540 62.824,371.127 62.824,370.875 62.786 C 370.623 62.748,370.829 62.717,371.333 62.717 C 371.837 62.717,372.044 62.748,371.792 62.786 M150.375 62.957 C 149.619 62.988,148.381 62.988,147.625 62.957 C 146.869 62.926,147.487 62.901,149.000 62.901 C 150.512 62.901,151.131 62.926,150.375 62.957 M152.467 65.375 L 152.434 67.250 152.333 65.417 C 152.278 64.408,152.212 63.771,152.186 64.000 C 152.161 64.229,152.102 64.320,152.054 64.203 C 151.943 63.925,152.108 63.500,152.328 63.500 C 152.438 63.500,152.488 64.177,152.467 65.375 M192.875 63.618 C 192.669 63.657,192.331 63.657,192.125 63.618 C 191.919 63.578,192.088 63.545,192.500 63.545 C 192.912 63.545,193.081 63.578,192.875 63.618 M193.667 63.833 C 193.529 63.922,193.304 63.995,193.167 63.995 C 192.944 63.995,192.944 63.977,193.167 63.833 C 193.304 63.744,193.529 63.672,193.667 63.672 C 193.889 63.672,193.889 63.690,193.667 63.833 M195.833 63.833 C 196.056 63.977,196.056 63.995,195.833 63.995 C 195.696 63.995,195.471 63.922,195.333 63.833 C 195.111 63.690,195.111 63.672,195.333 63.672 C 195.471 63.672,195.696 63.744,195.833 63.833 M208.500 63.801 C 208.500 63.876,208.404 64.068,208.286 64.229 C 208.085 64.504,208.071 64.502,208.071 64.190 C 208.071 64.007,208.130 63.894,208.202 63.939 C 208.274 63.983,208.333 63.940,208.333 63.843 C 208.333 63.746,208.371 63.667,208.417 63.667 C 208.463 63.667,208.500 63.727,208.500 63.801 M354.971 63.986 C 354.934 64.330,355.027 64.503,355.192 64.401 C 355.303 64.333,355.340 64.355,355.280 64.452 C 355.146 64.668,355.730 65.210,355.915 65.042 C 355.991 64.973,355.996 65.015,355.927 65.136 C 355.783 65.386,355.362 65.074,354.824 64.319 C 354.587 63.987,354.570 63.889,354.749 63.889 C 354.877 63.889,354.977 63.933,354.971 63.986 M386.167 63.913 C 386.167 64.156,385.176 64.814,385.075 64.639 C 385.004 64.517,385.009 64.473,385.085 64.542 C 385.242 64.684,385.864 64.185,385.753 64.006 C 385.714 63.941,385.791 63.889,385.924 63.889 C 386.057 63.889,386.167 63.900,386.167 63.913 M181.253 64.337 C 181.311 64.431,181.259 64.488,181.137 64.462 C 181.016 64.437,180.936 64.513,180.960 64.630 C 180.984 64.747,180.890 64.886,180.753 64.939 C 180.615 64.992,180.551 65.114,180.610 65.210 C 180.678 65.319,180.637 65.334,180.501 65.250 C 180.331 65.145,180.350 65.067,180.590 64.891 C 180.759 64.768,180.836 64.667,180.761 64.667 C 180.687 64.667,180.719 64.554,180.833 64.417 C 181.079 64.120,181.114 64.114,181.253 64.337 M319.782 65.292 C 319.740 65.452,319.705 65.321,319.705 65.000 C 319.705 64.679,319.740 64.548,319.782 64.708 C 319.823 64.869,319.823 65.131,319.782 65.292 M226.410 65.021 C 226.335 65.257,226.358 65.338,226.480 65.262 C 226.597 65.190,226.625 65.249,226.557 65.426 C 226.463 65.670,226.433 65.672,226.308 65.449 C 226.230 65.310,226.212 65.076,226.268 64.931 C 226.419 64.536,226.540 64.612,226.410 65.021 M307.500 65.667 C 307.500 65.839,307.425 66.027,307.333 66.083 C 307.236 66.144,307.167 65.971,307.167 65.667 C 307.167 65.363,307.236 65.190,307.333 65.250 C 307.425 65.307,307.500 65.494,307.500 65.667 M180.639 66.044 C 180.520 66.197,181.049 66.657,181.227 66.555 C 181.331 66.495,181.361 66.508,181.293 66.583 C 181.225 66.658,181.260 66.839,181.370 66.985 C 181.480 67.131,181.342 67.042,181.063 66.787 C 180.784 66.533,180.556 66.214,180.556 66.079 C 180.556 65.944,180.587 65.865,180.625 65.903 C 180.663 65.941,180.669 66.004,180.639 66.044 M384.000 66.219 C 384.000 66.248,383.757 66.491,383.461 66.760 C 383.164 67.030,383.052 67.094,383.211 66.903 C 383.370 66.712,383.444 66.494,383.375 66.418 C 383.306 66.342,383.339 66.331,383.447 66.393 C 383.555 66.455,383.691 66.429,383.748 66.336 C 383.847 66.176,384.000 66.105,384.000 66.219 M357.860 67.085 C 357.906 67.038,357.944 67.115,357.944 67.255 C 357.944 67.436,357.809 67.380,357.472 67.057 C 357.212 66.808,357.000 66.568,357.000 66.523 C 357.000 66.478,357.174 66.606,357.387 66.806 C 357.600 67.006,357.813 67.132,357.860 67.085 M136.265 67.207 C 136.349 67.139,136.359 67.154,136.288 67.240 C 136.217 67.326,136.514 67.758,136.948 68.198 C 137.382 68.639,137.700 69.000,137.655 69.000 C 137.610 69.000,137.125 68.535,136.578 67.968 C 136.031 67.400,135.703 67.024,135.849 67.133 C 135.995 67.242,136.182 67.275,136.265 67.207 M205.809 67.609 C 205.303 68.130,205.121 68.208,205.153 67.889 C 205.160 67.813,205.260 67.747,205.375 67.742 C 205.490 67.738,205.565 67.645,205.542 67.534 C 205.519 67.424,205.594 67.352,205.708 67.375 C 205.823 67.398,205.902 67.335,205.884 67.236 C 205.866 67.137,205.963 67.056,206.098 67.056 C 206.258 67.056,206.155 67.251,205.809 67.609 M152.425 70.445 C 152.284 70.568,152.243 70.578,152.334 70.467 C 152.425 70.357,152.515 69.700,152.533 69.008 L 152.566 67.750 152.624 68.986 C 152.669 69.946,152.625 70.272,152.425 70.445 M318.833 69.076 C 318.833 69.087,318.440 69.468,317.958 69.923 C 317.085 70.748,317.085 70.749,317.796 69.990 C 318.187 69.572,318.468 69.191,318.420 69.143 C 318.373 69.095,318.446 69.056,318.583 69.056 C 318.721 69.056,318.833 69.065,318.833 69.076 M378.732 69.528 C 378.649 69.663,378.710 69.689,378.931 69.611 C 379.240 69.503,379.240 69.507,378.926 69.750 C 378.749 69.887,378.524 69.999,378.426 69.997 C 378.329 69.996,378.363 69.922,378.500 69.833 C 378.637 69.744,378.689 69.671,378.615 69.669 C 378.473 69.667,378.626 69.333,378.770 69.333 C 378.816 69.333,378.799 69.421,378.732 69.528 M341.497 70.042 C 341.496 70.156,341.430 70.352,341.352 70.476 C 341.250 70.636,341.208 70.574,341.208 70.268 C 341.208 70.029,341.274 69.833,341.354 69.833 C 341.434 69.833,341.499 69.927,341.497 70.042 M190.076 71.012 C 190.023 71.097,189.869 71.167,189.734 71.167 C 189.531 71.167,189.525 71.125,189.702 70.934 C 189.930 70.687,190.238 70.750,190.076 71.012 M149.938 71.133 C 149.675 71.166,149.394 71.127,149.313 71.047 C 149.229 70.963,149.434 70.937,149.792 70.987 C 150.367 71.066,150.379 71.078,149.938 71.133 M144.667 71.167 C 144.667 71.258,144.348 71.323,143.958 71.310 L 143.250 71.286 143.917 71.167 C 144.283 71.101,144.602 71.037,144.625 71.024 C 144.648 71.011,144.667 71.075,144.667 71.167 M148.667 71.239 C 148.804 71.270,148.448 71.303,147.875 71.314 C 147.302 71.325,146.833 71.277,146.833 71.207 C 146.833 71.090,148.099 71.112,148.667 71.239 M193.708 71.621 C 193.410 71.658,192.923 71.658,192.625 71.621 C 192.327 71.584,192.571 71.553,193.167 71.553 C 193.762 71.553,194.006 71.584,193.708 71.621 M196.375 71.621 C 196.077 71.658,195.590 71.658,195.292 71.621 C 194.994 71.584,195.237 71.553,195.833 71.553 C 196.429 71.553,196.673 71.584,196.375 71.621 M369.455 71.622 C 369.109 71.658,368.584 71.657,368.288 71.620 C 367.992 71.583,368.275 71.554,368.917 71.555 C 369.558 71.555,369.800 71.586,369.455 71.622 M372.292 71.621 C 371.948 71.657,371.385 71.657,371.042 71.621 C 370.698 71.585,370.979 71.556,371.667 71.556 C 372.354 71.556,372.635 71.585,372.292 71.621 M314.042 71.787 C 313.744 71.824,313.256 71.824,312.958 71.787 C 312.660 71.750,312.904 71.720,313.500 71.720 C 314.096 71.720,314.340 71.750,314.042 71.787 M215.278 82.672 C 215.278 82.985,215.218 83.118,215.122 83.022 C 215.037 82.937,215.017 82.709,215.078 82.517 C 215.230 82.039,215.278 82.077,215.278 82.672 M214.948 84.792 C 214.906 84.952,214.872 84.821,214.872 84.500 C 214.872 84.179,214.906 84.048,214.948 84.208 C 214.990 84.369,214.990 84.631,214.948 84.792 M231.167 84.717 C 231.167 84.745,230.887 85.026,230.545 85.342 C 230.203 85.658,230.054 85.761,230.212 85.570 C 230.371 85.379,230.444 85.161,230.375 85.085 C 230.306 85.009,230.335 84.995,230.439 85.055 C 230.544 85.114,230.722 85.051,230.835 84.915 C 231.027 84.683,231.167 84.600,231.167 84.717 M229.500 86.415 C 229.500 86.430,229.294 86.624,229.043 86.846 C 228.710 87.140,228.665 87.156,228.877 86.903 C 229.037 86.712,229.130 86.519,229.084 86.473 C 229.038 86.427,229.112 86.389,229.250 86.389 C 229.387 86.389,229.500 86.401,229.500 86.415 M214.886 89.497 C 215.058 89.718,215.046 89.721,214.792 89.521 C 214.579 89.355,214.508 89.082,214.529 88.521 L 214.558 87.750 214.624 88.497 C 214.660 88.907,214.778 89.357,214.886 89.497 M224.583 89.000 C 224.527 89.092,224.579 89.168,224.698 89.169 C 224.857 89.171,224.848 89.216,224.667 89.333 C 224.529 89.422,224.342 89.495,224.250 89.495 C 224.158 89.495,224.196 89.422,224.333 89.333 C 224.471 89.244,224.523 89.171,224.448 89.169 C 224.306 89.167,224.460 88.833,224.603 88.833 C 224.649 88.833,224.640 88.908,224.583 89.000 M216.833 89.833 C 216.833 89.925,216.627 89.993,216.375 89.983 L 215.917 89.967 216.333 89.833 C 216.563 89.760,216.769 89.692,216.792 89.683 C 216.815 89.674,216.833 89.742,216.833 89.833 M219.792 90.119 C 219.540 90.158,219.127 90.158,218.875 90.119 C 218.623 90.081,218.829 90.050,219.333 90.050 C 219.838 90.050,220.044 90.081,219.792 90.119 " stroke="none" fill="#041c3c" fill-rule="evenodd"></path><path id="path1" d="M166.127 13.618 C 166.334 13.658,166.634 13.656,166.794 13.615 C 166.953 13.573,166.783 13.540,166.417 13.542 C 166.050 13.544,165.920 13.578,166.127 13.618 M336.460 13.618 C 336.668 13.658,336.968 13.656,337.127 13.615 C 337.286 13.573,337.117 13.540,336.750 13.542 C 336.383 13.544,336.253 13.578,336.460 13.618 M338.000 13.792 C 338.001 13.860,338.232 13.925,338.514 13.935 C 338.853 13.947,338.952 13.906,338.806 13.813 C 338.529 13.637,338.000 13.624,338.000 13.792 M332.686 15.397 C 332.231 15.861,332.037 16.170,332.155 16.243 C 332.260 16.308,332.322 16.265,332.296 16.145 C 332.271 16.028,332.362 15.928,332.500 15.924 C 332.637 15.920,332.750 15.804,332.750 15.667 C 332.750 15.529,332.862 15.417,333.000 15.417 C 333.137 15.417,333.251 15.342,333.253 15.250 C 333.254 15.158,333.315 14.990,333.387 14.875 C 333.628 14.497,333.412 14.657,332.686 15.397 M170.167 15.052 C 170.167 15.081,170.410 15.325,170.708 15.594 L 171.250 16.083 170.760 15.542 C 170.304 15.037,170.167 14.923,170.167 15.052 M161.721 15.875 C 161.535 16.081,161.323 16.362,161.250 16.500 C 161.110 16.765,161.148 16.729,161.823 15.958 C 162.044 15.706,162.187 15.500,162.141 15.500 C 162.096 15.500,161.906 15.669,161.721 15.875 M331.011 18.658 C 331.003 19.053,331.054 19.179,331.172 19.062 C 331.285 18.948,331.289 18.754,331.182 18.487 C 331.031 18.108,331.020 18.118,331.011 18.658 M160.583 19.484 C 160.583 19.934,160.640 20.267,160.708 20.224 C 160.777 20.182,160.833 19.814,160.833 19.407 C 160.833 19.000,160.777 18.667,160.708 18.667 C 160.640 18.667,160.583 19.035,160.583 19.484 M331.003 20.458 C 331.005 20.815,331.041 20.861,331.167 20.667 C 331.377 20.341,331.377 20.000,331.167 20.000 C 331.075 20.000,331.001 20.206,331.003 20.458 M135.792 20.787 C 136.090 20.824,136.577 20.824,136.875 20.787 C 137.173 20.750,136.929 20.720,136.333 20.720 C 135.737 20.720,135.494 20.750,135.792 20.787 M134.673 21.156 C 134.409 21.648,134.467 21.788,134.761 21.368 C 134.905 21.162,135.104 21.045,135.204 21.106 C 135.312 21.173,135.337 21.141,135.266 21.026 C 135.091 20.742,134.868 20.791,134.673 21.156 M141.833 26.550 L 141.916 31.750 141.961 26.677 C 141.985 23.888,141.948 21.548,141.877 21.477 C 141.807 21.407,141.787 23.690,141.833 26.550 M170.918 22.831 C 170.861 22.924,170.858 23.000,170.913 23.000 C 170.967 23.000,170.931 23.150,170.833 23.333 C 170.583 23.801,170.741 23.749,171.062 23.259 C 171.210 23.033,171.261 22.808,171.176 22.756 C 171.092 22.704,170.976 22.737,170.918 22.831 M341.502 23.081 C 341.388 23.218,341.210 23.281,341.106 23.221 C 341.002 23.162,340.972 23.175,341.040 23.250 C 341.184 23.408,340.854 23.866,340.676 23.755 C 340.610 23.715,340.556 23.794,340.556 23.931 C 340.556 24.087,340.794 23.947,341.194 23.556 C 341.546 23.213,341.833 22.910,341.833 22.883 C 341.833 22.767,341.693 22.851,341.502 23.081 M134.209 23.583 C 134.211 23.950,134.245 24.080,134.285 23.873 C 134.324 23.666,134.323 23.366,134.281 23.206 C 134.239 23.047,134.207 23.217,134.209 23.583 M166.127 25.451 C 166.334 25.491,166.634 25.490,166.794 25.448 C 166.953 25.406,166.783 25.374,166.417 25.375 C 166.050 25.377,165.920 25.411,166.127 25.451 M336.544 25.453 C 336.797 25.491,337.172 25.490,337.377 25.451 C 337.582 25.411,337.375 25.380,336.917 25.381 C 336.458 25.382,336.291 25.415,336.544 25.453 M133.667 27.417 C 133.667 27.738,133.727 28.000,133.800 28.000 C 133.873 28.000,133.902 27.738,133.865 27.417 C 133.828 27.096,133.768 26.833,133.732 26.833 C 133.696 26.833,133.667 27.096,133.667 27.417 M111.375 31.456 C 111.810 31.490,112.523 31.490,112.958 31.456 C 113.394 31.422,113.037 31.393,112.167 31.393 C 111.296 31.393,110.940 31.422,111.375 31.456 M193.381 31.457 C 193.912 31.490,194.737 31.490,195.214 31.456 C 195.692 31.422,195.258 31.395,194.250 31.396 C 193.242 31.396,192.851 31.424,193.381 31.457 M277.965 31.457 C 278.541 31.490,279.441 31.489,279.965 31.456 C 280.488 31.423,280.017 31.397,278.917 31.397 C 277.817 31.397,277.388 31.424,277.965 31.457 M369.215 31.457 C 369.838 31.489,370.813 31.489,371.382 31.457 C 371.951 31.424,371.442 31.398,370.250 31.398 C 369.058 31.398,368.593 31.425,369.215 31.457 M109.375 31.615 C 109.535 31.657,109.798 31.657,109.958 31.615 C 110.119 31.573,109.987 31.539,109.667 31.539 C 109.346 31.539,109.215 31.573,109.375 31.615 M197.460 31.618 C 197.668 31.658,197.968 31.656,198.127 31.615 C 198.286 31.573,198.117 31.540,197.750 31.542 C 197.383 31.544,197.253 31.578,197.460 31.618 M366.708 31.615 C 366.869 31.657,367.131 31.657,367.292 31.615 C 367.452 31.573,367.321 31.539,367.000 31.539 C 366.679 31.539,366.548 31.573,366.708 31.615 M373.208 31.615 C 373.369 31.657,373.631 31.657,373.792 31.615 C 373.952 31.573,373.821 31.539,373.500 31.539 C 373.179 31.539,373.048 31.573,373.208 31.615 M95.625 31.956 C 96.106 31.990,96.894 31.990,97.375 31.956 C 97.856 31.923,97.462 31.895,96.500 31.895 C 95.537 31.895,95.144 31.923,95.625 31.956 M261.292 31.956 C 261.773 31.990,262.560 31.990,263.042 31.956 C 263.523 31.923,263.129 31.895,262.167 31.895 C 261.204 31.895,260.810 31.923,261.292 31.956 M128.367 32.124 C 129.164 32.154,130.514 32.155,131.367 32.124 C 132.219 32.094,131.567 32.069,129.917 32.069 C 128.267 32.069,127.569 32.093,128.367 32.124 M144.552 32.125 C 145.910 32.153,148.085 32.153,149.385 32.125 C 150.686 32.096,149.575 32.073,146.917 32.074 C 144.258 32.074,143.194 32.097,144.552 32.125 M164.468 32.125 C 165.596 32.153,167.396 32.153,168.468 32.124 C 169.540 32.095,168.617 32.072,166.417 32.072 C 164.217 32.072,163.340 32.096,164.468 32.125 M216.051 32.125 C 217.225 32.153,219.100 32.153,220.218 32.124 C 221.336 32.096,220.375 32.072,218.083 32.072 C 215.792 32.072,214.877 32.096,216.051 32.125 M245.885 32.125 C 247.059 32.153,248.934 32.153,250.051 32.124 C 251.169 32.096,250.208 32.072,247.917 32.072 C 245.625 32.072,244.711 32.096,245.885 32.125 M273.667 32.180 C 273.471 32.317,273.498 32.332,273.792 32.250 C 274.021 32.185,274.167 32.217,274.167 32.332 C 274.167 32.435,274.243 32.473,274.336 32.415 C 274.543 32.287,274.389 31.999,274.115 32.003 C 274.006 32.004,273.804 32.084,273.667 32.180 M334.968 32.125 C 336.096 32.153,337.896 32.153,338.968 32.124 C 340.040 32.095,339.117 32.072,336.917 32.072 C 334.717 32.072,333.840 32.096,334.968 32.125 M364.702 32.233 C 364.820 32.360,364.974 32.430,365.044 32.388 C 365.235 32.272,365.017 32.000,364.734 32.000 C 364.531 32.000,364.525 32.042,364.702 32.233 M340.922 32.325 C 340.817 32.495,340.934 32.567,341.229 32.513 C 341.309 32.498,341.330 32.602,341.276 32.743 C 341.221 32.884,341.250 33.000,341.339 33.000 C 341.581 33.000,341.533 32.568,341.265 32.346 C 341.104 32.212,340.996 32.206,340.922 32.325 M259.608 32.579 C 259.385 33.160,259.484 70.366,259.708 70.292 C 259.955 70.209,260.104 32.989,259.859 32.552 C 259.734 32.328,259.703 32.331,259.608 32.579 M126.278 32.611 C 126.217 32.672,126.167 34.205,126.167 36.018 C 126.167 39.054,126.270 39.841,126.598 39.310 C 126.674 39.186,126.646 39.160,126.519 39.238 C 126.367 39.332,126.331 38.557,126.368 35.930 C 126.395 34.044,126.410 32.500,126.403 32.500 C 126.395 32.500,126.339 32.550,126.278 32.611 M152.298 35.946 C 152.335 38.561,152.300 39.332,152.148 39.238 C 152.021 39.160,151.992 39.186,152.069 39.310 C 152.397 39.841,152.500 39.052,152.500 36.000 C 152.500 34.177,152.444 32.651,152.375 32.609 C 152.306 32.566,152.272 34.068,152.298 35.946 M161.778 32.611 C 161.623 32.765,161.637 70.333,161.792 70.333 C 161.860 70.333,161.917 61.821,161.917 51.417 C 161.917 41.012,161.910 32.500,161.903 32.500 C 161.895 32.500,161.839 32.550,161.778 32.611 M170.914 51.500 C 170.914 61.904,170.934 66.160,170.958 60.958 C 170.983 55.756,170.983 47.244,170.958 42.042 C 170.934 36.840,170.914 41.096,170.914 51.500 M259.792 60.779 C 259.767 65.988,259.747 61.775,259.747 51.417 C 259.747 41.058,259.767 36.796,259.792 41.946 C 259.816 47.095,259.816 55.570,259.792 60.779 M286.578 33.175 C 286.420 33.431,286.637 33.597,286.851 33.383 C 286.970 33.263,286.973 33.170,286.859 33.099 C 286.766 33.042,286.640 33.076,286.578 33.175 M102.582 35.168 C 102.078 35.694,101.816 36.360,102.258 35.993 C 102.385 35.888,102.473 35.718,102.453 35.617 C 102.433 35.515,102.529 35.428,102.667 35.424 C 102.804 35.420,102.918 35.342,102.919 35.250 C 102.921 35.158,102.981 34.990,103.054 34.875 C 103.277 34.523,103.086 34.642,102.582 35.168 M267.887 35.837 C 267.413 36.293,267.081 36.667,267.150 36.667 C 267.219 36.667,267.449 36.481,267.662 36.255 C 267.874 36.029,268.131 35.891,268.233 35.949 C 268.334 36.006,268.360 35.991,268.290 35.914 C 268.221 35.837,268.327 35.600,268.528 35.387 C 269.167 34.707,268.779 34.979,267.887 35.837 M206.743 35.511 C 206.661 35.645,206.684 35.676,206.808 35.599 C 206.930 35.523,207.007 35.620,207.019 35.865 C 207.035 36.175,207.054 36.189,207.118 35.941 C 207.218 35.553,206.925 35.217,206.743 35.511 M290.639 35.887 C 290.839 36.100,290.946 36.337,290.877 36.414 C 290.807 36.491,290.849 36.496,290.971 36.426 C 291.173 36.309,290.638 35.500,290.359 35.500 C 290.313 35.500,290.439 35.674,290.639 35.887 M382.906 35.958 C 382.929 36.119,382.990 36.212,383.040 36.167 C 383.090 36.121,383.308 36.232,383.524 36.414 C 383.779 36.629,383.746 36.556,383.427 36.206 C 382.858 35.579,382.849 35.575,382.906 35.958 M183.017 36.232 C 182.725 36.543,182.691 36.660,182.862 36.759 C 182.984 36.829,183.028 36.825,182.960 36.750 C 182.816 36.592,183.146 36.134,183.324 36.245 C 183.390 36.285,183.444 36.209,183.444 36.076 C 183.444 35.767,183.459 35.762,183.017 36.232 M101.366 36.411 L 100.982 36.623 101.341 36.717 C 101.538 36.769,101.655 36.766,101.601 36.712 C 101.547 36.658,101.586 36.513,101.689 36.390 C 101.906 36.128,101.876 36.130,101.366 36.411 M384.500 37.417 C 384.811 37.737,385.103 38.000,385.149 38.000 C 385.195 38.000,384.978 37.737,384.667 37.417 C 384.356 37.096,384.064 36.833,384.018 36.833 C 383.972 36.833,384.189 37.096,384.500 37.417 M206.016 37.113 C 206.075 37.453,205.985 37.677,205.829 37.581 C 205.735 37.523,205.679 37.575,205.704 37.696 C 205.729 37.817,205.651 37.896,205.529 37.871 C 205.408 37.846,205.358 37.906,205.419 38.004 C 205.496 38.129,205.604 38.121,205.774 37.980 C 206.161 37.659,206.359 37.202,206.163 37.081 C 206.069 37.023,206.002 37.037,206.016 37.113 M355.653 37.600 C 355.465 37.826,355.247 38.475,355.415 38.307 C 355.447 38.276,355.460 38.202,355.444 38.142 C 355.429 38.083,355.560 37.877,355.734 37.684 C 355.909 37.491,356.012 37.333,355.963 37.333 C 355.914 37.333,355.775 37.453,355.653 37.600 M385.412 38.483 C 385.442 38.892,385.753 39.265,385.885 39.052 C 385.934 38.972,385.842 38.732,385.680 38.518 C 385.393 38.137,385.387 38.136,385.412 38.483 M191.925 39.223 C 191.630 39.439,191.630 39.450,191.930 39.565 C 192.100 39.631,192.187 39.631,192.121 39.566 C 192.056 39.501,192.086 39.347,192.189 39.224 C 192.426 38.938,192.315 38.938,191.925 39.223 M194.213 39.123 C 194.652 39.157,195.327 39.157,195.713 39.122 C 196.100 39.087,195.742 39.059,194.917 39.059 C 194.092 39.060,193.775 39.088,194.213 39.123 M354.213 39.375 C 353.886 39.797,353.832 39.980,354.001 40.084 C 354.097 40.143,354.164 40.130,354.151 40.054 C 354.096 39.738,354.176 39.486,354.306 39.566 C 354.382 39.613,354.444 39.543,354.444 39.409 C 354.444 39.113,354.418 39.109,354.213 39.375 M110.167 40.029 C 110.167 40.105,110.392 40.167,110.667 40.167 C 110.942 40.167,111.167 40.138,111.167 40.102 C 111.167 40.067,110.942 40.005,110.667 39.964 C 110.392 39.924,110.167 39.953,110.167 40.029 M190.906 40.375 L 190.417 40.917 190.958 40.427 C 191.463 39.971,191.577 39.833,191.448 39.833 C 191.419 39.833,191.175 40.077,190.906 40.375 M276.833 40.042 C 276.833 40.110,277.358 40.167,278.000 40.167 C 278.642 40.167,279.167 40.110,279.167 40.042 C 279.167 39.973,278.642 39.917,278.000 39.917 C 277.358 39.917,276.833 39.973,276.833 40.042 M369.333 40.042 C 369.333 40.110,369.783 40.167,370.333 40.167 C 370.883 40.167,371.333 40.110,371.333 40.042 C 371.333 39.973,370.883 39.917,370.333 39.917 C 369.783 39.917,369.333 39.973,369.333 40.042 M112.794 40.118 C 113.001 40.158,113.301 40.156,113.460 40.115 C 113.620 40.073,113.450 40.040,113.083 40.042 C 112.717 40.044,112.586 40.078,112.794 40.118 M132.745 49.167 C 132.745 54.254,132.766 56.335,132.792 53.792 C 132.817 51.248,132.817 47.085,132.792 44.542 C 132.766 41.998,132.745 44.079,132.745 49.167 M200.389 40.234 C 200.389 40.374,200.490 40.429,200.638 40.372 C 200.814 40.305,200.848 40.342,200.752 40.497 C 200.659 40.647,200.679 40.678,200.816 40.594 C 200.969 40.499,200.970 40.415,200.821 40.235 C 200.572 39.935,200.389 39.935,200.389 40.234 M280.702 40.267 C 280.525 40.458,280.531 40.500,280.734 40.500 C 281.017 40.500,281.235 40.228,281.044 40.112 C 280.974 40.070,280.820 40.140,280.702 40.267 M180.897 40.407 C 180.847 40.539,180.840 40.783,180.883 40.949 C 180.933 41.142,180.968 41.082,180.981 40.782 C 180.993 40.473,181.066 40.354,181.192 40.433 C 181.312 40.506,181.340 40.478,181.266 40.359 C 181.108 40.104,181.009 40.116,180.897 40.407 M141.911 48.917 C 141.911 53.683,141.932 55.609,141.958 53.197 C 141.984 50.784,141.984 46.884,141.958 44.530 C 141.932 42.176,141.911 44.150,141.911 48.917 M107.757 40.655 C 107.634 40.855,107.947 41.052,108.169 40.915 C 108.356 40.800,108.233 40.500,108.000 40.500 C 107.919 40.500,107.810 40.570,107.757 40.655 M180.709 42.250 C 180.711 42.617,180.745 42.747,180.785 42.540 C 180.824 42.332,180.823 42.032,180.781 41.873 C 180.739 41.714,180.707 41.883,180.709 42.250 M363.718 42.236 C 363.735 42.335,363.669 42.402,363.569 42.384 C 363.470 42.366,363.389 42.462,363.389 42.596 C 363.389 42.775,363.492 42.742,363.778 42.474 C 364.237 42.043,364.232 42.056,363.926 42.056 C 363.794 42.056,363.700 42.137,363.718 42.236 M377.326 42.875 C 377.735 43.310,378.091 43.667,378.118 43.667 C 378.243 43.667,378.111 43.517,377.375 42.826 L 376.583 42.083 377.326 42.875 M105.254 42.996 C 105.090 43.177,104.879 43.278,104.785 43.220 C 104.684 43.158,104.667 43.198,104.742 43.320 C 104.850 43.495,105.667 42.965,105.667 42.721 C 105.667 42.597,105.535 42.685,105.254 42.996 M180.733 43.234 C 180.684 43.363,180.669 43.719,180.701 44.026 C 180.753 44.515,180.770 44.486,180.839 43.792 C 180.921 42.980,180.891 42.822,180.733 43.234 M362.554 43.208 C 362.422 43.416,362.394 43.506,362.354 43.843 C 362.343 43.940,362.240 43.966,362.125 43.900 C 362.010 43.834,361.972 43.841,362.040 43.916 C 362.108 43.991,362.081 44.172,361.980 44.318 C 361.879 44.464,362.017 44.339,362.287 44.040 C 362.557 43.740,362.778 43.384,362.778 43.248 C 362.778 42.945,362.727 42.936,362.554 43.208 M270.083 43.500 C 269.917 43.683,269.840 43.833,269.911 43.833 C 269.983 43.833,269.940 43.965,269.817 44.125 C 269.694 44.285,269.785 44.247,270.019 44.039 C 270.253 43.831,270.444 43.550,270.444 43.414 C 270.444 43.101,270.444 43.101,270.083 43.500 M361.411 44.675 C 361.253 44.931,361.470 45.097,361.684 44.883 C 361.804 44.763,361.807 44.670,361.693 44.599 C 361.599 44.542,361.473 44.576,361.411 44.675 M295.147 45.630 C 295.092 45.961,295.116 46.117,295.209 46.024 C 295.293 45.940,295.334 45.694,295.300 45.478 C 295.247 45.144,295.224 45.167,295.147 45.630 M360.353 47.802 C 360.340 48.047,360.264 48.143,360.141 48.067 C 360.017 47.991,359.994 48.022,360.076 48.155 C 360.258 48.449,360.551 48.114,360.452 47.726 C 360.388 47.477,360.368 47.492,360.353 47.802 M286.207 58.972 C 286.175 68.023,286.209 70.347,286.375 70.292 C 286.539 70.237,286.584 68.009,286.585 59.903 L 286.587 49.583 286.503 59.917 L 286.419 70.250 286.333 58.917 L 286.247 47.583 286.207 58.972 M103.079 59.083 C 103.079 65.317,103.100 67.842,103.125 64.696 C 103.150 61.550,103.150 56.450,103.125 53.363 C 103.100 50.276,103.079 52.850,103.079 59.083 M389.705 48.500 C 389.705 48.821,389.740 48.952,389.782 48.792 C 389.823 48.631,389.823 48.369,389.782 48.208 C 389.740 48.048,389.705 48.179,389.705 48.500 M295.278 48.278 C 295.123 48.432,295.137 70.333,295.292 70.333 C 295.360 70.333,295.417 65.346,295.417 59.250 C 295.417 53.154,295.410 48.167,295.403 48.167 C 295.395 48.167,295.339 48.217,295.278 48.278 M183.528 50.111 C 184.494 51.086,185.082 51.569,184.442 50.861 C 184.290 50.694,184.222 50.500,184.291 50.431 C 184.360 50.362,184.308 50.331,184.174 50.361 C 184.041 50.392,183.928 50.304,183.924 50.167 C 183.920 50.029,183.804 49.913,183.667 49.909 C 183.529 49.905,183.437 49.806,183.462 49.688 C 183.488 49.571,183.440 49.517,183.356 49.569 C 183.191 49.671,182.785 49.271,182.918 49.137 C 182.963 49.092,182.883 49.056,182.741 49.056 C 182.589 49.056,182.915 49.493,183.528 50.111 M389.898 51.417 C 389.898 52.608,389.925 53.074,389.957 52.451 C 389.989 51.829,389.989 50.854,389.957 50.285 C 389.924 49.716,389.898 50.225,389.898 51.417 M350.831 51.451 C 350.787 52.111,350.810 52.591,350.884 52.517 C 350.957 52.443,350.994 51.903,350.965 51.316 L 350.913 50.250 350.831 51.451 M389.689 54.500 C 389.669 55.052,389.619 55.184,389.500 55.000 C 389.411 54.862,389.338 54.825,389.338 54.917 C 389.338 55.008,389.407 55.192,389.491 55.325 C 389.692 55.642,389.890 54.912,389.788 54.228 C 389.737 53.886,389.709 53.963,389.689 54.500 M196.487 55.351 C 196.708 55.438,196.948 55.452,197.019 55.380 C 197.091 55.309,196.909 55.237,196.616 55.221 C 196.116 55.193,196.108 55.201,196.487 55.351 M132.865 59.750 C 132.837 60.817,133.030 61.429,133.231 60.907 C 133.291 60.748,133.302 60.580,133.254 60.532 C 133.206 60.484,133.154 60.551,133.138 60.681 C 133.122 60.810,133.060 60.429,133.000 59.833 L 132.891 58.750 132.865 59.750 M183.399 61.375 C 182.581 62.262,182.469 62.444,182.743 62.444 C 182.874 62.444,182.977 62.401,182.971 62.347 C 182.937 62.035,183.019 61.826,183.144 61.903 C 183.224 61.952,183.423 61.844,183.587 61.663 C 183.751 61.482,183.827 61.333,183.755 61.333 C 183.684 61.333,183.719 61.221,183.833 61.083 C 184.221 60.616,183.901 60.831,183.399 61.375 M308.684 61.422 C 308.399 61.746,308.167 62.061,308.167 62.122 C 308.167 62.183,308.223 62.162,308.293 62.075 C 308.362 61.988,308.639 61.673,308.907 61.375 C 309.176 61.077,309.352 60.833,309.298 60.833 C 309.245 60.833,308.968 61.098,308.684 61.422 M317.583 61.167 C 317.722 61.319,317.947 61.444,318.085 61.444 C 318.306 61.444,318.306 61.413,318.083 61.167 C 317.945 61.014,317.719 60.889,317.582 60.889 C 317.360 60.889,317.360 60.920,317.583 61.167 M373.361 62.313 C 373.183 62.425,373.193 62.475,373.411 62.558 C 373.561 62.616,373.642 62.594,373.590 62.511 C 373.538 62.427,373.628 62.324,373.790 62.282 C 373.995 62.228,374.009 62.200,373.833 62.189 C 373.696 62.179,373.483 62.235,373.361 62.313 M145.294 62.785 C 145.501 62.824,145.801 62.823,145.960 62.781 C 146.120 62.739,145.950 62.707,145.583 62.709 C 145.217 62.711,145.086 62.745,145.294 62.785 M181.777 63.306 C 181.371 63.722,181.243 63.944,181.410 63.944 C 181.551 63.944,181.630 63.908,181.585 63.863 C 181.441 63.718,181.864 63.333,182.045 63.444 C 182.140 63.503,182.170 63.473,182.111 63.378 C 181.977 63.162,182.397 62.791,182.584 62.960 C 182.659 63.028,182.666 62.990,182.600 62.875 C 182.442 62.601,182.489 62.576,181.777 63.306 M189.085 62.831 C 189.024 62.929,189.099 62.952,189.269 62.886 C 189.461 62.812,189.516 62.840,189.435 62.970 C 189.356 63.098,189.408 63.128,189.589 63.058 C 189.807 62.975,189.817 62.925,189.639 62.813 C 189.346 62.627,189.208 62.632,189.085 62.831 M368.792 62.787 C 369.090 62.824,369.577 62.824,369.875 62.787 C 370.173 62.750,369.929 62.720,369.333 62.720 C 368.738 62.720,368.494 62.750,368.792 62.787 M370.875 62.786 C 371.127 62.824,371.540 62.824,371.792 62.786 C 372.044 62.748,371.837 62.717,371.333 62.717 C 370.829 62.717,370.623 62.748,370.875 62.786 M147.625 62.957 C 148.381 62.988,149.619 62.988,150.375 62.957 C 151.131 62.926,150.512 62.901,149.000 62.901 C 147.487 62.901,146.869 62.926,147.625 62.957 M152.062 63.745 C 152.011 63.879,152.007 64.085,152.054 64.203 C 152.102 64.320,152.161 64.229,152.186 64.000 C 152.212 63.771,152.278 64.408,152.333 65.417 L 152.434 67.250 152.467 65.375 C 152.498 63.638,152.343 63.014,152.062 63.745 M192.125 63.618 C 192.331 63.657,192.669 63.657,192.875 63.618 C 193.081 63.578,192.912 63.545,192.500 63.545 C 192.088 63.545,191.919 63.578,192.125 63.618 M193.167 63.833 C 192.944 63.977,192.944 63.995,193.167 63.995 C 193.304 63.995,193.529 63.922,193.667 63.833 C 193.889 63.690,193.889 63.672,193.667 63.672 C 193.529 63.672,193.304 63.744,193.167 63.833 M195.333 63.833 C 195.471 63.922,195.696 63.995,195.833 63.995 C 196.056 63.995,196.056 63.977,195.833 63.833 C 195.696 63.744,195.471 63.672,195.333 63.672 C 195.111 63.672,195.111 63.690,195.333 63.833 M208.333 63.843 C 208.333 63.940,208.274 63.983,208.202 63.939 C 208.130 63.894,208.071 64.007,208.071 64.190 C 208.071 64.502,208.085 64.504,208.286 64.229 C 208.505 63.930,208.566 63.667,208.417 63.667 C 208.371 63.667,208.333 63.746,208.333 63.843 M354.824 64.319 C 355.362 65.074,355.783 65.386,355.927 65.136 C 355.996 65.015,355.991 64.973,355.915 65.042 C 355.730 65.210,355.146 64.668,355.280 64.452 C 355.340 64.355,355.303 64.333,355.192 64.401 C 355.027 64.503,354.934 64.330,354.971 63.986 C 354.977 63.933,354.877 63.889,354.749 63.889 C 354.570 63.889,354.587 63.987,354.824 64.319 M385.753 64.006 C 385.864 64.185,385.242 64.684,385.085 64.542 C 385.009 64.473,385.004 64.517,385.075 64.639 C 385.173 64.809,385.316 64.752,385.685 64.399 C 386.247 63.860,386.234 63.889,385.924 63.889 C 385.791 63.889,385.714 63.941,385.753 64.006 M180.833 64.417 C 180.719 64.554,180.687 64.667,180.761 64.667 C 180.836 64.667,180.759 64.768,180.590 64.891 C 180.350 65.067,180.331 65.145,180.501 65.250 C 180.637 65.334,180.678 65.319,180.610 65.210 C 180.551 65.114,180.615 64.992,180.753 64.939 C 180.890 64.886,180.984 64.747,180.960 64.630 C 180.936 64.513,181.016 64.437,181.137 64.462 C 181.259 64.488,181.311 64.431,181.253 64.337 C 181.114 64.114,181.079 64.120,180.833 64.417 M319.705 65.000 C 319.705 65.321,319.740 65.452,319.782 65.292 C 319.823 65.131,319.823 64.869,319.782 64.708 C 319.740 64.548,319.705 64.679,319.705 65.000 M226.268 64.931 C 226.212 65.076,226.230 65.310,226.308 65.449 C 226.433 65.672,226.463 65.670,226.557 65.426 C 226.625 65.249,226.597 65.190,226.480 65.262 C 226.358 65.338,226.335 65.257,226.410 65.021 C 226.540 64.612,226.419 64.536,226.268 64.931 M307.167 65.667 C 307.167 65.971,307.236 66.144,307.333 66.083 C 307.425 66.027,307.500 65.839,307.500 65.667 C 307.500 65.494,307.425 65.307,307.333 65.250 C 307.236 65.190,307.167 65.363,307.167 65.667 M180.556 66.079 C 180.556 66.214,180.784 66.533,181.063 66.787 C 181.342 67.042,181.480 67.131,181.370 66.985 C 181.260 66.839,181.225 66.658,181.293 66.583 C 181.361 66.508,181.331 66.495,181.227 66.555 C 181.049 66.657,180.520 66.197,180.639 66.044 C 180.669 66.004,180.663 65.941,180.625 65.903 C 180.587 65.865,180.556 65.944,180.556 66.079 M383.748 66.336 C 383.691 66.429,383.555 66.455,383.447 66.393 C 383.339 66.331,383.306 66.342,383.375 66.418 C 383.444 66.494,383.370 66.712,383.211 66.903 C 383.052 67.094,383.164 67.030,383.461 66.760 C 383.757 66.491,384.000 66.248,384.000 66.219 C 384.000 66.105,383.847 66.176,383.748 66.336 M357.000 66.523 C 357.000 66.568,357.212 66.808,357.472 67.057 C 357.809 67.380,357.944 67.436,357.944 67.255 C 357.944 67.115,357.906 67.038,357.860 67.085 C 357.813 67.132,357.600 67.006,357.387 66.806 C 357.174 66.606,357.000 66.478,357.000 66.523 M136.578 67.968 C 137.125 68.535,137.610 69.000,137.655 69.000 C 137.700 69.000,137.382 68.639,136.948 68.198 C 136.514 67.758,136.217 67.326,136.288 67.240 C 136.359 67.154,136.349 67.139,136.265 67.207 C 136.182 67.275,135.995 67.242,135.849 67.133 C 135.703 67.024,136.031 67.400,136.578 67.968 M205.884 67.236 C 205.902 67.335,205.823 67.398,205.708 67.375 C 205.594 67.352,205.519 67.424,205.542 67.534 C 205.565 67.645,205.490 67.738,205.375 67.742 C 205.260 67.747,205.160 67.813,205.153 67.889 C 205.121 68.208,205.303 68.130,205.809 67.609 C 206.155 67.251,206.258 67.056,206.098 67.056 C 205.963 67.056,205.866 67.137,205.884 67.236 M152.533 69.008 C 152.515 69.700,152.425 70.357,152.334 70.467 C 152.243 70.578,152.284 70.568,152.425 70.445 C 152.625 70.272,152.669 69.946,152.624 68.986 L 152.566 67.750 152.533 69.008 M318.420 69.143 C 318.468 69.191,318.187 69.572,317.796 69.990 C 317.085 70.749,317.085 70.748,317.958 69.923 C 318.964 68.972,318.904 69.056,318.583 69.056 C 318.446 69.056,318.373 69.095,318.420 69.143 M378.583 69.500 C 378.527 69.592,378.541 69.668,378.615 69.669 C 378.689 69.671,378.637 69.744,378.500 69.833 C 378.363 69.922,378.329 69.996,378.426 69.997 C 378.524 69.999,378.749 69.887,378.926 69.750 C 379.240 69.507,379.240 69.503,378.931 69.611 C 378.710 69.689,378.649 69.663,378.732 69.528 C 378.799 69.421,378.816 69.333,378.770 69.333 C 378.724 69.333,378.640 69.408,378.583 69.500 M341.208 70.268 C 341.208 70.574,341.250 70.636,341.352 70.476 C 341.538 70.182,341.539 69.833,341.354 69.833 C 341.274 69.833,341.208 70.029,341.208 70.268 M189.702 70.934 C 189.525 71.125,189.531 71.167,189.734 71.167 C 190.017 71.167,190.235 70.894,190.044 70.779 C 189.974 70.736,189.820 70.806,189.702 70.934 M149.313 71.047 C 149.394 71.127,149.675 71.166,149.938 71.133 C 150.379 71.078,150.367 71.066,149.792 70.987 C 149.434 70.937,149.229 70.963,149.313 71.047 M143.917 71.167 L 143.250 71.286 143.958 71.310 C 144.348 71.323,144.667 71.258,144.667 71.167 C 144.667 71.075,144.648 71.011,144.625 71.024 C 144.602 71.037,144.283 71.101,143.917 71.167 M146.833 71.207 C 146.833 71.277,147.302 71.325,147.875 71.314 C 149.001 71.293,148.891 71.214,147.625 71.132 C 147.190 71.104,146.833 71.138,146.833 71.207 M192.625 71.621 C 192.923 71.658,193.410 71.658,193.708 71.621 C 194.006 71.584,193.762 71.553,193.167 71.553 C 192.571 71.553,192.327 71.584,192.625 71.621 M195.292 71.621 C 195.590 71.658,196.077 71.658,196.375 71.621 C 196.673 71.584,196.429 71.553,195.833 71.553 C 195.237 71.553,194.994 71.584,195.292 71.621 M368.288 71.620 C 368.584 71.657,369.109 71.658,369.455 71.622 C 369.800 71.586,369.558 71.555,368.917 71.555 C 368.275 71.554,367.992 71.583,368.288 71.620 M371.042 71.621 C 371.385 71.657,371.948 71.657,372.292 71.621 C 372.635 71.585,372.354 71.556,371.667 71.556 C 370.979 71.556,370.698 71.585,371.042 71.621 M312.958 71.787 C 313.256 71.824,313.744 71.824,314.042 71.787 C 314.340 71.750,314.096 71.720,313.500 71.720 C 312.904 71.720,312.660 71.750,312.958 71.787 M215.078 82.517 C 215.017 82.709,215.037 82.937,215.122 83.022 C 215.218 83.118,215.278 82.985,215.278 82.672 C 215.278 82.077,215.230 82.039,215.078 82.517 M214.872 84.500 C 214.872 84.821,214.906 84.952,214.948 84.792 C 214.990 84.631,214.990 84.369,214.948 84.208 C 214.906 84.048,214.872 84.179,214.872 84.500 M230.835 84.915 C 230.722 85.051,230.544 85.114,230.439 85.055 C 230.335 84.995,230.306 85.009,230.375 85.085 C 230.444 85.161,230.371 85.379,230.212 85.570 C 230.054 85.761,230.203 85.658,230.545 85.342 C 230.887 85.026,231.167 84.745,231.167 84.717 C 231.167 84.600,231.027 84.683,230.835 84.915 M229.084 86.473 C 229.130 86.519,229.037 86.712,228.877 86.903 C 228.665 87.156,228.710 87.140,229.043 86.846 C 229.578 86.373,229.571 86.389,229.250 86.389 C 229.112 86.389,229.038 86.427,229.084 86.473 M214.529 88.521 C 214.508 89.082,214.579 89.355,214.792 89.521 C 215.046 89.721,215.058 89.718,214.886 89.497 C 214.778 89.357,214.660 88.907,214.624 88.497 L 214.558 87.750 214.529 88.521 M224.417 89.000 C 224.360 89.092,224.374 89.168,224.448 89.169 C 224.523 89.171,224.471 89.244,224.333 89.333 C 224.196 89.422,224.158 89.495,224.250 89.495 C 224.342 89.495,224.529 89.422,224.667 89.333 C 224.848 89.216,224.857 89.171,224.698 89.169 C 224.579 89.168,224.527 89.092,224.583 89.000 C 224.640 88.908,224.649 88.833,224.603 88.833 C 224.557 88.833,224.473 88.908,224.417 89.000 M216.333 89.833 L 215.917 89.967 216.375 89.983 C 216.627 89.993,216.833 89.925,216.833 89.833 C 216.833 89.742,216.815 89.674,216.792 89.683 C 216.769 89.692,216.563 89.760,216.333 89.833 M218.875 90.119 C 219.127 90.158,219.540 90.158,219.792 90.119 C 220.044 90.081,219.838 90.050,219.333 90.050 C 218.829 90.050,218.623 90.081,218.875 90.119 " stroke="none" fill="#0c1c3c" fill-rule="evenodd"></path></g></svg>